<svg xmlns="http://www.w3.org/2000/svg" xmlns:xlink="http://www.w3.org/1999/xlink" width="50" zoomAndPan="magnify" viewBox="0 0 37.5 37.499999" height="50" preserveAspectRatio="xMidYMid meet" version="1.0"><defs><clipPath id="098231ce54"><path d="M 0.621094 5.257812 L 36.621094 5.257812 L 36.621094 32.257812 L 0.621094 32.257812 Z M 0.621094 5.257812 " clip-rule="nonzero"/></clipPath></defs><g clip-path="url(#098231ce54)"><path fill="#000000" d="M 36.597656 14.539062 L 36.597656 14.003906 C 36.597656 13.988281 36.59375 13.972656 36.589844 13.957031 L 34.804688 5.445312 C 34.78125 5.335938 34.6875 5.257812 34.574219 5.257812 L 31.363281 5.257812 C 31.363281 5.257812 31.359375 5.257812 31.355469 5.257812 L 5.878906 5.257812 C 5.878906 5.257812 5.875 5.257812 5.875 5.257812 L 2.660156 5.257812 C 2.550781 5.257812 2.453125 5.335938 2.429688 5.445312 L 0.644531 13.957031 C 0.640625 13.972656 0.640625 13.988281 0.640625 14.003906 L 0.640625 14.539062 C 0.640625 15.582031 1.421875 16.445312 2.425781 16.5625 L 2.425781 29.9375 L 2.242188 29.9375 C 1.433594 29.9375 0.777344 30.601562 0.777344 31.414062 L 0.777344 32.023438 C 0.777344 32.152344 0.882812 32.257812 1.011719 32.257812 L 36.226562 32.257812 C 36.355469 32.257812 36.460938 32.152344 36.460938 32.023438 L 36.460938 31.414062 C 36.460938 30.601562 35.804688 29.9375 34.996094 29.9375 L 34.808594 29.9375 L 34.808594 16.5625 C 35.8125 16.445312 36.597656 15.582031 36.597656 14.539062 Z M 36.125 14.539062 C 36.125 15.402344 35.429688 16.101562 34.574219 16.101562 C 33.796875 16.101562 33.140625 15.523438 33.039062 14.75 C 33.039062 14.742188 33.039062 14.738281 33.039062 14.730469 C 33.046875 14.664062 33.050781 14.601562 33.050781 14.539062 L 33.050781 14.242188 L 36.125 14.242188 Z M 8.773438 5.734375 L 7.761719 13.765625 L 4.726562 13.765625 L 6.070312 5.734375 Z M 31.164062 5.734375 L 32.511719 13.765625 L 29.476562 13.765625 L 28.464844 5.734375 Z M 27.964844 5.734375 L 28.976562 13.765625 L 25.9375 13.765625 L 25.265625 5.734375 Z M 25.441406 13.765625 L 22.402344 13.765625 L 22.0625 5.734375 L 24.769531 5.734375 Z M 21.90625 13.765625 L 18.867188 13.765625 L 18.867188 5.734375 L 21.570312 5.734375 Z M 18.371094 13.765625 L 15.332031 13.765625 L 15.667969 5.734375 L 18.371094 5.734375 Z M 14.835938 13.765625 L 11.796875 13.765625 L 12.46875 5.734375 L 15.171875 5.734375 Z M 11.296875 13.765625 L 8.257812 13.765625 L 9.269531 5.734375 L 11.972656 5.734375 Z M 4.683594 14.539062 L 4.683594 14.242188 L 7.730469 14.242188 L 7.730469 14.539062 C 7.730469 14.613281 7.734375 14.683594 7.742188 14.753906 C 7.640625 15.523438 6.984375 16.101562 6.207031 16.101562 C 5.425781 16.101562 4.769531 15.519531 4.671875 14.742188 C 4.675781 14.671875 4.683594 14.605469 4.683594 14.539062 Z M 8.226562 14.539062 L 8.226562 14.242188 L 11.277344 14.242188 L 11.277344 14.539062 C 11.277344 14.609375 11.28125 14.679688 11.289062 14.746094 C 11.1875 15.511719 10.539062 16.105469 9.753906 16.105469 C 8.964844 16.105469 8.316406 15.507812 8.21875 14.742188 C 8.222656 14.671875 8.226562 14.605469 8.226562 14.539062 Z M 11.773438 14.539062 L 11.773438 14.242188 L 14.824219 14.242188 L 14.824219 14.539062 C 14.824219 14.609375 14.828125 14.679688 14.835938 14.746094 C 14.734375 15.511719 14.085938 16.105469 13.300781 16.105469 C 12.515625 16.105469 11.863281 15.511719 11.761719 14.746094 C 11.769531 14.679688 11.773438 14.609375 11.773438 14.539062 Z M 15.320312 14.539062 L 15.320312 14.242188 L 18.371094 14.242188 L 18.371094 14.539062 C 18.371094 14.609375 18.375 14.679688 18.378906 14.746094 C 18.28125 15.511719 17.628906 16.105469 16.84375 16.105469 C 16.058594 16.105469 15.410156 15.511719 15.308594 14.746094 C 15.316406 14.679688 15.320312 14.609375 15.320312 14.539062 Z M 18.867188 14.539062 L 18.867188 14.242188 L 21.917969 14.242188 L 21.917969 14.539062 C 21.917969 14.609375 21.917969 14.679688 21.925781 14.746094 C 21.824219 15.511719 21.175781 16.105469 20.390625 16.105469 C 19.605469 16.105469 18.957031 15.511719 18.855469 14.746094 C 18.863281 14.679688 18.867188 14.609375 18.867188 14.539062 Z M 22.414062 14.539062 L 22.414062 14.242188 L 25.460938 14.242188 L 25.460938 14.539062 C 25.460938 14.609375 25.464844 14.679688 25.472656 14.746094 C 25.371094 15.511719 24.722656 16.105469 23.9375 16.105469 C 23.152344 16.105469 22.503906 15.511719 22.402344 14.746094 C 22.410156 14.679688 22.414062 14.609375 22.414062 14.539062 Z M 25.957031 14.539062 L 25.957031 14.242188 L 29.007812 14.242188 L 29.007812 14.539062 C 29.007812 14.601562 29.015625 14.667969 29.019531 14.734375 C 28.925781 15.503906 28.273438 16.101562 27.484375 16.101562 C 26.699219 16.101562 26.046875 15.511719 25.949219 14.746094 C 25.953125 14.679688 25.957031 14.609375 25.957031 14.539062 Z M 29.503906 14.539062 L 29.503906 14.242188 L 32.554688 14.242188 L 32.554688 14.539062 C 32.554688 14.605469 32.558594 14.671875 32.566406 14.742188 C 32.46875 15.519531 31.8125 16.101562 31.03125 16.101562 C 30.25 16.101562 29.59375 15.519531 29.492188 14.746094 C 29.5 14.679688 29.503906 14.609375 29.503906 14.539062 Z M 36.070312 13.765625 L 33.015625 13.765625 L 31.664062 5.734375 L 34.382812 5.734375 Z M 2.851562 5.734375 L 5.570312 5.734375 L 4.222656 13.765625 L 1.164062 13.765625 Z M 1.109375 14.539062 L 1.109375 14.242188 L 4.1875 14.242188 L 4.1875 14.539062 C 4.1875 14.601562 4.191406 14.664062 4.195312 14.730469 C 4.195312 14.738281 4.195312 14.742188 4.195312 14.75 C 4.121094 15.328125 3.734375 15.800781 3.214844 16 C 3.042969 16.066406 2.855469 16.101562 2.660156 16.101562 C 1.804688 16.101562 1.109375 15.402344 1.109375 14.539062 Z M 21.402344 29.9375 L 15.835938 29.9375 L 15.835938 17.78125 L 21.402344 17.78125 Z M 35.988281 31.414062 L 35.988281 31.785156 L 1.246094 31.785156 L 1.246094 31.414062 C 1.246094 30.859375 1.691406 30.410156 2.238281 30.410156 L 2.652344 30.410156 C 2.65625 30.410156 2.65625 30.410156 2.660156 30.410156 L 34.574219 30.410156 C 34.578125 30.410156 34.582031 30.410156 34.582031 30.410156 L 34.996094 30.410156 C 35.542969 30.410156 35.988281 30.859375 35.988281 31.414062 Z M 21.871094 29.9375 L 21.871094 17.542969 C 21.871094 17.414062 21.765625 17.308594 21.636719 17.308594 L 15.597656 17.308594 C 15.46875 17.308594 15.363281 17.414062 15.363281 17.542969 L 15.363281 29.9375 L 2.894531 29.9375 L 2.894531 16.5625 C 2.925781 16.558594 2.953125 16.554688 2.980469 16.550781 C 3.003906 16.546875 3.027344 16.542969 3.050781 16.539062 C 3.089844 16.53125 3.128906 16.519531 3.167969 16.511719 C 3.1875 16.507812 3.207031 16.5 3.226562 16.496094 C 3.28125 16.480469 3.335938 16.460938 3.386719 16.441406 C 3.390625 16.441406 3.390625 16.441406 3.390625 16.441406 C 3.445312 16.417969 3.5 16.394531 3.554688 16.367188 C 3.570312 16.359375 3.585938 16.351562 3.601562 16.34375 C 3.636719 16.324219 3.671875 16.304688 3.707031 16.285156 C 3.726562 16.273438 3.742188 16.261719 3.761719 16.246094 C 3.792969 16.226562 3.820312 16.207031 3.851562 16.1875 C 3.871094 16.171875 3.886719 16.15625 3.90625 16.144531 C 3.933594 16.121094 3.960938 16.101562 3.988281 16.078125 C 4.003906 16.0625 4.023438 16.046875 4.042969 16.027344 C 4.066406 16.003906 4.089844 15.980469 4.113281 15.957031 C 4.128906 15.941406 4.148438 15.921875 4.164062 15.902344 C 4.1875 15.878906 4.207031 15.851562 4.230469 15.828125 C 4.246094 15.808594 4.261719 15.785156 4.273438 15.765625 C 4.292969 15.738281 4.3125 15.714844 4.332031 15.683594 C 4.347656 15.664062 4.359375 15.644531 4.375 15.621094 C 4.390625 15.59375 4.410156 15.5625 4.425781 15.535156 C 4.429688 15.527344 4.433594 15.523438 4.433594 15.515625 C 4.777344 16.152344 5.449219 16.578125 6.207031 16.578125 C 6.964844 16.578125 7.632812 16.152344 7.980469 15.515625 C 8.324219 16.148438 8.988281 16.578125 9.753906 16.578125 C 10.515625 16.578125 11.183594 16.148438 11.527344 15.515625 C 11.871094 16.148438 12.535156 16.578125 13.300781 16.578125 C 14.0625 16.578125 14.730469 16.148438 15.074219 15.515625 C 15.414062 16.148438 16.082031 16.578125 16.84375 16.578125 C 17.609375 16.578125 18.273438 16.148438 18.617188 15.515625 C 18.960938 16.148438 19.628906 16.578125 20.390625 16.578125 C 21.15625 16.578125 21.820312 16.148438 22.164062 15.515625 C 22.507812 16.148438 23.171875 16.578125 23.9375 16.578125 C 24.699219 16.578125 25.367188 16.148438 25.710938 15.515625 C 26.054688 16.148438 26.71875 16.578125 27.484375 16.578125 C 28.246094 16.578125 28.914062 16.148438 29.257812 15.515625 C 29.601562 16.152344 30.269531 16.578125 31.03125 16.578125 C 31.789062 16.578125 32.457031 16.152344 32.800781 15.515625 C 32.804688 15.523438 32.808594 15.527344 32.8125 15.535156 C 32.828125 15.5625 32.84375 15.59375 32.863281 15.621094 C 32.875 15.644531 32.890625 15.664062 32.90625 15.6875 C 32.921875 15.714844 32.941406 15.738281 32.960938 15.765625 C 32.976562 15.785156 32.992188 15.808594 33.007812 15.828125 C 33.027344 15.851562 33.050781 15.875 33.070312 15.898438 C 33.089844 15.921875 33.105469 15.9375 33.125 15.957031 C 33.148438 15.980469 33.171875 16.003906 33.195312 16.023438 C 33.210938 16.042969 33.230469 16.0625 33.25 16.078125 C 33.277344 16.097656 33.300781 16.121094 33.328125 16.140625 C 33.347656 16.15625 33.367188 16.171875 33.386719 16.1875 C 33.414062 16.207031 33.441406 16.226562 33.472656 16.246094 C 33.492188 16.257812 33.511719 16.273438 33.53125 16.285156 C 33.5625 16.304688 33.597656 16.320312 33.628906 16.339844 C 33.648438 16.347656 33.664062 16.359375 33.683594 16.367188 C 33.734375 16.394531 33.789062 16.417969 33.84375 16.4375 C 33.847656 16.441406 33.855469 16.441406 33.859375 16.445312 C 33.910156 16.464844 33.960938 16.480469 34.011719 16.496094 C 34.03125 16.5 34.050781 16.507812 34.070312 16.511719 C 34.109375 16.519531 34.144531 16.53125 34.183594 16.539062 C 34.207031 16.542969 34.230469 16.546875 34.253906 16.550781 C 34.28125 16.554688 34.3125 16.558594 34.339844 16.5625 L 34.339844 29.9375 Z M 13.582031 17.308594 L 4.449219 17.308594 C 4.320312 17.308594 4.214844 17.414062 4.214844 17.542969 L 4.214844 25.582031 C 4.214844 25.714844 4.320312 25.820312 4.449219 25.820312 L 13.582031 25.820312 C 13.710938 25.820312 13.816406 25.714844 13.816406 25.582031 L 13.816406 17.542969 C 13.816406 17.414062 13.710938 17.308594 13.582031 17.308594 Z M 13.34375 25.347656 L 4.683594 25.347656 L 4.683594 17.78125 L 13.34375 17.78125 Z M 32.789062 17.308594 L 23.65625 17.308594 C 23.527344 17.308594 23.421875 17.414062 23.421875 17.542969 L 23.421875 25.582031 C 23.421875 25.714844 23.527344 25.820312 23.65625 25.820312 L 32.789062 25.820312 C 32.917969 25.820312 33.023438 25.714844 33.023438 25.582031 L 33.023438 17.542969 C 33.023438 17.414062 32.917969 17.308594 32.789062 17.308594 Z M 32.554688 25.347656 L 23.890625 25.347656 L 23.890625 17.78125 L 32.554688 17.78125 Z M 20.730469 23.75 C 21.046875 23.75 21.304688 23.492188 21.304688 23.171875 C 21.304688 22.855469 21.046875 22.59375 20.730469 22.59375 C 20.414062 22.59375 20.15625 22.855469 20.15625 23.171875 C 20.15625 23.492188 20.414062 23.75 20.730469 23.75 Z M 20.730469 22.882812 C 20.890625 22.882812 21.019531 23.011719 21.019531 23.171875 C 21.019531 23.332031 20.890625 23.464844 20.730469 23.464844 C 20.570312 23.464844 20.441406 23.332031 20.441406 23.171875 C 20.441406 23.011719 20.570312 22.882812 20.730469 22.882812 Z M 20.730469 22.882812 " fill-opacity="1" fill-rule="nonzero"/></g></svg>