<svg xmlns="http://www.w3.org/2000/svg" xmlns:xlink="http://www.w3.org/1999/xlink" width="50" zoomAndPan="magnify" viewBox="0 0 37.5 37.499999" height="50" preserveAspectRatio="xMidYMid meet" version="1.0"><defs><clipPath id="cd46962978"><path d="M 7.007812 26.351562 L 29.480469 26.351562 L 29.480469 35.867188 L 7.007812 35.867188 Z M 7.007812 26.351562 " clip-rule="nonzero"/></clipPath><clipPath id="810bda7feb"><path d="M 7.007812 15 L 19 15 L 19 27 L 7.007812 27 Z M 7.007812 15 " clip-rule="nonzero"/></clipPath><clipPath id="8df56498af"><path d="M 26.648438 15.039062 L 30.257812 15.039062 L 30.257812 24.746094 L 26.648438 24.746094 Z M 26.648438 15.039062 " clip-rule="nonzero"/></clipPath><clipPath id="81effdb45e"><path d="M 7.007812 1.367188 L 10 1.367188 L 10 14 L 7.007812 14 Z M 7.007812 1.367188 " clip-rule="nonzero"/></clipPath><clipPath id="45cdc59d75"><path d="M 7.007812 3 L 16 3 L 16 16 L 7.007812 16 Z M 7.007812 3 " clip-rule="nonzero"/></clipPath></defs><g clip-path="url(#cd46962978)"><path fill="#100f0d" d="M 6.097656 28.003906 C 6.09375 28 6.089844 28 6.089844 28 C 6.082031 28 6.074219 28 6.066406 28 C 6.0625 27.996094 6.054688 27.996094 6.050781 27.996094 C 6.046875 27.996094 6.039062 27.996094 6.03125 27.996094 C 6.027344 27.996094 6.019531 27.996094 6.011719 27.996094 C 6.007812 27.996094 6.003906 27.996094 5.996094 28 C 5.992188 28 5.984375 28 5.976562 28 C 5.972656 28 5.96875 28 5.964844 28.003906 L -5.792969 30.191406 L -16.699219 28.957031 L -16.699219 28.019531 L -5.820312 29.25 C -5.804688 29.253906 -5.792969 29.253906 -5.777344 29.253906 C -5.757812 29.253906 -5.734375 29.253906 -5.714844 29.25 L 6.03125 27.058594 L 17.777344 29.25 C 17.8125 29.253906 17.847656 29.253906 17.882812 29.25 L 28.761719 28.019531 L 28.761719 28.957031 L 17.855469 30.191406 Z M 29.46875 29.261719 L 29.46875 27.628906 C 29.46875 27.53125 29.425781 27.4375 29.347656 27.371094 C 29.273438 27.304688 29.175781 27.273438 29.074219 27.285156 L 28.878906 27.308594 L 25.929688 26.636719 C 25.742188 26.59375 25.550781 26.710938 25.507812 26.894531 C 25.464844 27.082031 25.582031 27.269531 25.773438 27.3125 L 26.792969 27.542969 L 17.855469 28.558594 L 6.097656 26.367188 C 6.09375 26.367188 6.089844 26.367188 6.089844 26.367188 C 6.082031 26.363281 6.074219 26.363281 6.066406 26.363281 C 6.0625 26.363281 6.054688 26.363281 6.050781 26.363281 C 6.042969 26.363281 6.039062 26.359375 6.03125 26.359375 C 6.027344 26.359375 6.019531 26.363281 6.011719 26.363281 C 6.007812 26.363281 6.003906 26.363281 5.996094 26.363281 C 5.992188 26.363281 5.984375 26.363281 5.976562 26.367188 C 5.972656 26.367188 5.96875 26.367188 5.964844 26.367188 L -5.792969 28.558594 L -14.984375 27.515625 L -13.417969 27.15625 C -13.226562 27.113281 -13.109375 26.929688 -13.152344 26.742188 C -13.195312 26.554688 -13.386719 26.441406 -13.574219 26.484375 L -17.128906 27.292969 C -17.132812 27.292969 -17.136719 27.292969 -17.140625 27.292969 C -17.144531 27.296875 -17.148438 27.296875 -17.152344 27.296875 C -17.15625 27.296875 -17.160156 27.300781 -17.160156 27.300781 C -17.164062 27.300781 -17.167969 27.304688 -17.171875 27.304688 C -17.175781 27.304688 -17.179688 27.308594 -17.183594 27.308594 C -17.1875 27.308594 -17.191406 27.3125 -17.195312 27.3125 C -17.199219 27.3125 -17.203125 27.316406 -17.207031 27.320312 C -17.210938 27.320312 -17.210938 27.320312 -17.214844 27.324219 C -17.21875 27.324219 -17.222656 27.324219 -17.222656 27.328125 C -17.226562 27.328125 -17.234375 27.332031 -17.238281 27.335938 C -17.238281 27.335938 -17.242188 27.339844 -17.246094 27.339844 C -17.246094 27.339844 -17.25 27.34375 -17.253906 27.34375 C -17.257812 27.347656 -17.261719 27.351562 -17.265625 27.355469 C -17.269531 27.355469 -17.269531 27.359375 -17.273438 27.359375 C -17.273438 27.363281 -17.277344 27.363281 -17.277344 27.363281 C -17.28125 27.367188 -17.285156 27.371094 -17.289062 27.375 C -17.292969 27.378906 -17.296875 27.378906 -17.296875 27.382812 C -17.300781 27.382812 -17.300781 27.386719 -17.304688 27.386719 C -17.308594 27.390625 -17.308594 27.394531 -17.3125 27.398438 C -17.316406 27.402344 -17.316406 27.402344 -17.320312 27.40625 C -17.324219 27.410156 -17.324219 27.410156 -17.328125 27.414062 C -17.328125 27.417969 -17.332031 27.421875 -17.335938 27.425781 C -17.335938 27.425781 -17.339844 27.429688 -17.339844 27.433594 C -17.34375 27.4375 -17.34375 27.4375 -17.347656 27.441406 C -17.347656 27.445312 -17.351562 27.449219 -17.351562 27.449219 C -17.355469 27.453125 -17.355469 27.457031 -17.359375 27.460938 C -17.359375 27.464844 -17.363281 27.46875 -17.363281 27.46875 C -17.367188 27.472656 -17.367188 27.476562 -17.367188 27.480469 C -17.371094 27.484375 -17.371094 27.488281 -17.375 27.492188 C -17.375 27.496094 -17.375 27.496094 -17.378906 27.5 C -17.378906 27.503906 -17.378906 27.507812 -17.382812 27.511719 C -17.382812 27.515625 -17.386719 27.519531 -17.386719 27.523438 C -17.386719 27.527344 -17.386719 27.527344 -17.386719 27.53125 C -17.390625 27.535156 -17.390625 27.542969 -17.394531 27.546875 C -17.394531 27.550781 -17.394531 27.554688 -17.394531 27.554688 C -17.394531 27.558594 -17.394531 27.5625 -17.398438 27.5625 C -17.398438 27.570312 -17.398438 27.574219 -17.398438 27.582031 C -17.398438 27.585938 -17.402344 27.585938 -17.402344 27.589844 C -17.402344 27.59375 -17.402344 27.59375 -17.402344 27.597656 C -17.402344 27.605469 -17.402344 27.609375 -17.402344 27.617188 C -17.402344 27.621094 -17.402344 27.625 -17.402344 27.628906 L -17.402344 29.265625 C -17.402344 29.441406 -17.269531 29.589844 -17.089844 29.609375 L -16.1875 29.710938 L -16.1875 34.980469 C -16.1875 35.171875 -16.03125 35.328125 -15.835938 35.328125 C -15.644531 35.328125 -15.484375 35.171875 -15.484375 34.980469 L -15.484375 29.789062 L -6.515625 30.808594 L -6.515625 36.257812 C -6.515625 36.449219 -6.359375 36.605469 -6.164062 36.605469 C -5.972656 36.605469 -5.8125 36.449219 -5.8125 36.257812 L -5.8125 30.886719 C -5.800781 30.890625 -5.789062 30.890625 -5.777344 30.890625 C -5.757812 30.890625 -5.734375 30.886719 -5.714844 30.882812 L 5.679688 28.761719 L 5.679688 34.394531 C 5.679688 34.585938 5.835938 34.738281 6.03125 34.738281 C 6.226562 34.738281 6.382812 34.585938 6.382812 34.394531 L 6.382812 28.761719 L 17.777344 30.882812 C 17.800781 30.886719 17.820312 30.890625 17.84375 30.890625 C 17.855469 30.890625 17.867188 30.890625 17.878906 30.886719 L 17.878906 36.257812 C 17.878906 36.449219 18.035156 36.605469 18.230469 36.605469 C 18.421875 36.605469 18.582031 36.449219 18.582031 36.257812 L 18.582031 30.808594 L 27.550781 29.789062 L 27.550781 34.980469 C 27.550781 35.171875 27.707031 35.328125 27.902344 35.328125 C 28.097656 35.328125 28.253906 35.171875 28.253906 34.980469 L 28.253906 29.710938 L 29.15625 29.609375 C 29.160156 29.609375 29.164062 29.605469 29.167969 29.605469 C 29.175781 29.605469 29.183594 29.605469 29.1875 29.601562 C 29.195312 29.601562 29.199219 29.601562 29.203125 29.601562 C 29.210938 29.597656 29.214844 29.597656 29.222656 29.59375 C 29.226562 29.59375 29.230469 29.589844 29.238281 29.589844 C 29.242188 29.585938 29.25 29.585938 29.253906 29.582031 C 29.261719 29.582031 29.265625 29.578125 29.269531 29.574219 C 29.277344 29.574219 29.28125 29.570312 29.285156 29.566406 C 29.289062 29.566406 29.296875 29.5625 29.300781 29.558594 C 29.304688 29.554688 29.308594 29.554688 29.3125 29.550781 C 29.320312 29.546875 29.324219 29.542969 29.328125 29.539062 C 29.332031 29.535156 29.335938 29.53125 29.339844 29.53125 C 29.347656 29.527344 29.351562 29.523438 29.355469 29.519531 C 29.359375 29.515625 29.363281 29.511719 29.367188 29.507812 C 29.371094 29.503906 29.375 29.5 29.378906 29.496094 C 29.382812 29.492188 29.386719 29.488281 29.386719 29.480469 C 29.390625 29.476562 29.394531 29.472656 29.398438 29.46875 C 29.402344 29.464844 29.40625 29.460938 29.410156 29.457031 C 29.410156 29.449219 29.414062 29.445312 29.417969 29.441406 C 29.417969 29.4375 29.421875 29.433594 29.425781 29.425781 C 29.429688 29.421875 29.429688 29.417969 29.433594 29.414062 C 29.433594 29.40625 29.4375 29.402344 29.441406 29.394531 C 29.441406 29.390625 29.445312 29.386719 29.445312 29.382812 C 29.449219 29.375 29.449219 29.371094 29.453125 29.363281 C 29.453125 29.359375 29.453125 29.351562 29.457031 29.347656 C 29.457031 29.34375 29.460938 29.335938 29.460938 29.332031 C 29.460938 29.324219 29.460938 29.316406 29.464844 29.3125 C 29.464844 29.304688 29.464844 29.300781 29.464844 29.296875 C 29.464844 29.289062 29.464844 29.28125 29.464844 29.277344 C 29.464844 29.273438 29.46875 29.269531 29.46875 29.265625 L 29.46875 29.261719 " fill-opacity="1" fill-rule="nonzero"/></g><g clip-path="url(#810bda7feb)"><path fill="#100f0d" d="M 7.574219 16.746094 L 17.378906 18.140625 L 17.378906 24.558594 L 14.160156 24.101562 L 14.160156 19.878906 C 14.160156 19.726562 14.09375 19.5 13.773438 19.300781 C 13.617188 19.203125 13.402344 19.113281 13.136719 19.035156 C 12.667969 18.894531 12.078125 18.808594 11.601562 18.808594 C 11.328125 18.808594 11.097656 18.835938 10.925781 18.890625 C 10.5 19.03125 10.453125 19.324219 10.453125 19.445312 L 10.453125 23.660156 L 7.574219 23.171875 Z M 6.980469 16.066406 C 6.902344 16.136719 6.855469 16.234375 6.855469 16.335938 L 6.855469 23.472656 C 6.855469 23.644531 6.980469 23.792969 7.15625 23.820312 L 10.453125 24.378906 L 10.453125 25.578125 C 10.453125 25.773438 10.613281 25.933594 10.8125 25.933594 C 11.011719 25.933594 11.171875 25.773438 11.171875 25.578125 L 11.171875 19.558594 C 11.335938 19.515625 11.742188 19.488281 12.324219 19.578125 C 12.984375 19.683594 13.34375 19.855469 13.441406 19.9375 L 13.441406 24.410156 C 13.441406 24.410156 13.441406 24.410156 13.441406 24.414062 L 13.4375 26.121094 C 13.4375 26.316406 13.601562 26.476562 13.796875 26.476562 C 13.996094 26.476562 14.160156 26.316406 14.160156 26.121094 L 14.160156 24.816406 L 17.683594 25.316406 C 17.683594 25.316406 17.6875 25.316406 17.6875 25.316406 L 17.6875 25.320312 C 17.6875 25.320312 17.691406 25.320312 17.691406 25.320312 C 17.695312 25.320312 17.703125 25.320312 17.710938 25.320312 C 17.714844 25.320312 17.714844 25.320312 17.71875 25.320312 C 17.722656 25.320312 17.730469 25.320312 17.738281 25.320312 C 17.738281 25.320312 17.738281 25.324219 17.742188 25.324219 C 17.742188 25.324219 17.742188 25.320312 17.742188 25.320312 C 17.75 25.320312 17.761719 25.320312 17.769531 25.320312 C 17.769531 25.320312 17.773438 25.320312 17.773438 25.320312 C 17.785156 25.320312 17.792969 25.320312 17.800781 25.316406 C 17.804688 25.316406 17.804688 25.316406 17.808594 25.316406 C 17.816406 25.3125 17.824219 25.3125 17.835938 25.308594 C 17.835938 25.308594 17.835938 25.308594 17.839844 25.308594 C 17.847656 25.304688 17.855469 25.304688 17.867188 25.300781 C 17.886719 25.292969 17.90625 25.28125 17.921875 25.273438 C 17.933594 25.265625 17.941406 25.261719 17.949219 25.257812 C 17.949219 25.257812 17.949219 25.253906 17.949219 25.253906 C 17.957031 25.25 17.964844 25.242188 17.972656 25.238281 C 17.972656 25.238281 17.976562 25.234375 17.976562 25.234375 C 17.984375 25.230469 17.988281 25.222656 17.996094 25.214844 C 17.996094 25.214844 18 25.214844 18 25.214844 C 18.007812 25.207031 18.011719 25.199219 18.015625 25.191406 C 18.019531 25.191406 18.019531 25.191406 18.019531 25.191406 C 18.027344 25.183594 18.03125 25.175781 18.035156 25.167969 C 18.035156 25.167969 18.039062 25.167969 18.039062 25.164062 C 18.042969 25.160156 18.046875 25.152344 18.050781 25.144531 C 18.054688 25.140625 18.054688 25.140625 18.054688 25.136719 C 18.058594 25.128906 18.0625 25.121094 18.066406 25.113281 C 18.066406 25.113281 18.070312 25.109375 18.070312 25.109375 C 18.074219 25.101562 18.078125 25.09375 18.078125 25.082031 C 18.082031 25.082031 18.082031 25.082031 18.082031 25.082031 C 18.085938 25.070312 18.085938 25.0625 18.089844 25.050781 C 18.09375 25.039062 18.09375 25.027344 18.097656 25.019531 C 18.097656 25.015625 18.097656 25.015625 18.097656 25.015625 C 18.097656 25.011719 18.097656 25.007812 18.097656 25 C 18.097656 25 18.097656 24.996094 18.097656 24.992188 C 18.097656 24.988281 18.097656 24.988281 18.097656 24.984375 C 18.097656 24.980469 18.097656 24.976562 18.101562 24.96875 L 18.101562 17.832031 C 18.101562 17.65625 17.96875 17.503906 17.792969 17.480469 L 7.265625 15.984375 C 7.164062 15.96875 7.058594 16 6.980469 16.066406 " fill-opacity="1" fill-rule="nonzero"/></g><path fill="#100f0d" d="M 22.253906 12.976562 C 23.878906 12.976562 25.199219 14.277344 25.199219 15.875 C 25.199219 17.476562 23.878906 18.777344 22.253906 18.777344 C 20.632812 18.777344 19.3125 17.476562 19.3125 15.875 C 19.3125 14.277344 20.632812 12.976562 22.253906 12.976562 Z M 22.253906 19.484375 C 23.234375 19.484375 24.152344 19.109375 24.84375 18.429688 C 25.535156 17.746094 25.917969 16.839844 25.917969 15.875 C 25.917969 14.914062 25.535156 14.007812 24.84375 13.324219 C 24.152344 12.644531 23.234375 12.269531 22.253906 12.269531 C 21.277344 12.269531 20.359375 12.644531 19.667969 13.324219 C 18.976562 14.007812 18.59375 14.914062 18.59375 15.875 C 18.59375 16.839844 18.976562 17.746094 19.667969 18.429688 C 20.359375 19.109375 21.277344 19.484375 22.253906 19.484375 " fill-opacity="1" fill-rule="nonzero"/><path fill="#100f0d" d="M 20.339844 21.871094 C 20.386719 21.683594 20.269531 21.492188 20.074219 21.445312 C 19.882812 21.398438 19.6875 21.511719 19.640625 21.703125 L 19.433594 22.53125 C 19.386719 22.722656 19.503906 22.914062 19.699219 22.960938 C 19.726562 22.96875 19.753906 22.96875 19.785156 22.96875 C 19.945312 22.96875 20.09375 22.863281 20.132812 22.699219 L 20.339844 21.871094 " fill-opacity="1" fill-rule="nonzero"/><g clip-path="url(#8df56498af)"><path fill="#100f0d" d="M 30.574219 15.996094 C 30.265625 15.542969 29.582031 15.257812 28.476562 15.121094 C 27.71875 15.027344 27.042969 15.046875 27.015625 15.046875 C 26.816406 15.050781 26.660156 15.214844 26.664062 15.410156 C 26.667969 15.601562 26.828125 15.753906 27.023438 15.753906 C 27.027344 15.753906 27.03125 15.753906 27.03125 15.753906 C 27.039062 15.753906 27.679688 15.738281 28.386719 15.824219 C 28.863281 15.882812 29.199219 15.96875 29.4375 16.054688 C 29.1875 16.171875 28.917969 16.355469 28.667969 16.636719 C 27.917969 17.488281 27.675781 18.878906 27.953125 20.765625 C 27.976562 20.941406 28.132812 21.070312 28.308594 21.070312 C 28.324219 21.070312 28.339844 21.066406 28.359375 21.066406 C 28.554688 21.039062 28.691406 20.859375 28.664062 20.664062 C 28.425781 19.023438 28.613281 17.796875 29.199219 17.113281 C 29.480469 16.789062 29.796875 16.652344 30.011719 16.59375 C 30.027344 16.789062 30.019531 17.164062 29.921875 17.855469 C 29.820312 18.5625 29.636719 19.480469 29.382812 20.582031 C 28.945312 22.46875 28.441406 24.261719 28.433594 24.28125 C 28.382812 24.46875 28.492188 24.664062 28.683594 24.71875 C 28.714844 24.726562 28.75 24.730469 28.78125 24.730469 C 28.9375 24.730469 29.082031 24.628906 29.128906 24.472656 C 29.132812 24.453125 29.652344 22.609375 30.097656 20.683594 C 30.359375 19.550781 30.542969 18.605469 30.644531 17.882812 C 30.824219 16.578125 30.710938 16.195312 30.574219 15.996094 " fill-opacity="1" fill-rule="nonzero"/></g><path fill="#100f0d" d="M 21.003906 24.167969 C 21.5625 23.9375 23.261719 23.644531 23.867188 23.550781 C 23.980469 23.53125 24.078125 23.464844 24.128906 23.367188 C 24.183594 23.269531 24.1875 23.152344 24.140625 23.050781 C 23.996094 22.742188 23.972656 22.238281 23.976562 22.070312 C 23.980469 21.875 23.824219 21.710938 23.625 21.707031 C 23.425781 21.703125 23.261719 21.855469 23.257812 22.054688 C 23.253906 22.109375 23.25 22.507812 23.34375 22.917969 C 22.652344 23.03125 21.289062 23.28125 20.726562 23.511719 C 19.789062 23.898438 19.804688 25.085938 19.804688 25.132812 C 19.808594 25.328125 19.96875 25.480469 20.164062 25.480469 C 20.167969 25.480469 20.167969 25.480469 20.171875 25.480469 C 20.371094 25.476562 20.527344 25.316406 20.523438 25.117188 C 20.523438 25.109375 20.519531 24.363281 21.003906 24.167969 " fill-opacity="1" fill-rule="nonzero"/><path fill="#100f0d" d="M 25.222656 19.234375 C 25.207031 19.230469 25.191406 19.230469 25.175781 19.230469 C 24.984375 19.230469 24.824219 19.386719 24.824219 19.578125 C 24.824219 19.738281 24.9375 19.875 25.089844 19.914062 C 25.09375 19.914062 25.097656 19.914062 25.101562 19.914062 C 25.152344 19.929688 25.386719 20.023438 25.570312 20.265625 C 25.652344 20.414062 25.882812 21.195312 26.023438 22.152344 C 26.179688 23.242188 26.152344 24.109375 25.945312 24.53125 C 25.84375 24.726562 25.742188 24.765625 25.660156 24.773438 C 25.464844 24.800781 25.324219 24.980469 25.351562 25.171875 C 25.375 25.351562 25.527344 25.480469 25.707031 25.480469 C 25.722656 25.480469 25.738281 25.480469 25.753906 25.476562 C 26.027344 25.441406 26.398438 25.289062 26.628906 24.757812 C 26.949219 24.015625 26.851562 22.816406 26.71875 21.9375 C 26.648438 21.492188 26.554688 21.03125 26.449219 20.636719 C 26.285156 20.027344 26.1875 19.894531 26.15625 19.851562 C 25.847656 19.441406 25.464844 19.296875 25.296875 19.253906 C 25.273438 19.242188 25.25 19.238281 25.222656 19.234375 " fill-opacity="1" fill-rule="nonzero"/><g clip-path="url(#81effdb45e)"><path fill="#100f0d" d="M 1.84375 2.070312 L 4.367188 2.070312 C 6.652344 2.070312 8.511719 3.902344 8.511719 6.15625 C 8.511719 8.40625 6.652344 10.242188 4.367188 10.242188 L 1.84375 10.242188 C 1.636719 10.242188 1.433594 10.226562 1.230469 10.195312 C 1.140625 10.183594 1.054688 10.203125 0.980469 10.253906 L -1.484375 11.910156 L -0.671875 9.707031 C -0.617188 9.570312 -0.664062 9.414062 -0.777344 9.320312 C -1.746094 8.539062 -2.304688 7.386719 -2.304688 6.15625 C -2.304688 3.902344 -0.445312 2.070312 1.84375 2.070312 Z M -1.414062 9.695312 L -2.519531 12.683594 C -2.574219 12.828125 -2.527344 12.984375 -2.40625 13.078125 C -2.34375 13.125 -2.265625 13.152344 -2.191406 13.152344 C -2.121094 13.152344 -2.054688 13.128906 -1.992188 13.089844 L 1.265625 10.898438 C 1.457031 10.921875 1.648438 10.933594 1.84375 10.933594 L 4.367188 10.933594 C 5.660156 10.933594 6.878906 10.4375 7.796875 9.535156 C 8.710938 8.632812 9.214844 7.429688 9.214844 6.15625 C 9.214844 4.878906 8.710938 3.679688 7.796875 2.773438 C 6.878906 1.871094 5.660156 1.375 4.367188 1.375 L 1.84375 1.375 C 0.546875 1.375 -0.671875 1.871094 -1.585938 2.773438 C -2.503906 3.679688 -3.007812 4.878906 -3.007812 6.15625 C -3.007812 7.511719 -2.429688 8.789062 -1.414062 9.695312 " fill-opacity="1" fill-rule="nonzero"/></g><g clip-path="url(#45cdc59d75)"><path fill="#100f0d" d="M 10.222656 4.371094 C 12.507812 4.371094 14.367188 6.203125 14.367188 8.457031 C 14.367188 9.691406 13.8125 10.84375 12.84375 11.625 C 12.726562 11.71875 12.683594 11.871094 12.734375 12.011719 L 13.550781 14.214844 L 11.082031 12.554688 C 11.011719 12.507812 10.921875 12.488281 10.832031 12.5 C 10.632812 12.527344 10.425781 12.542969 10.222656 12.542969 L 7.695312 12.542969 C 6.886719 12.542969 6.101562 12.3125 5.425781 11.875 C 5.261719 11.769531 5.042969 11.816406 4.9375 11.976562 C 4.832031 12.136719 4.875 12.351562 5.039062 12.457031 C 5.828125 12.964844 6.75 13.238281 7.695312 13.238281 L 10.222656 13.238281 C 10.414062 13.238281 10.605469 13.226562 10.796875 13.203125 L 14.058594 15.394531 C 14.117188 15.433594 14.1875 15.453125 14.253906 15.453125 C 14.332031 15.453125 14.40625 15.429688 14.472656 15.382812 C 14.589844 15.289062 14.636719 15.128906 14.585938 14.988281 L 13.476562 12 C 14.492188 11.09375 15.070312 9.816406 15.070312 8.457031 C 15.070312 7.179688 14.566406 5.980469 13.652344 5.078125 C 12.734375 4.175781 11.515625 3.679688 10.222656 3.679688 C 10.027344 3.679688 9.871094 3.832031 9.871094 4.023438 C 9.871094 4.214844 10.027344 4.371094 10.222656 4.371094 " fill-opacity="1" fill-rule="nonzero"/></g></svg>