<?xml version="1.0" encoding="utf-8"?>
<!-- Generator: Adobe Illustrator 22.1.0, SVG Export Plug-In . SVG Version: 6.00 Build 0)  -->
<svg version="1.1" id="Layer_1" xmlns="http://www.w3.org/2000/svg" xmlns:xlink="http://www.w3.org/1999/xlink" x="0px" y="0px"
	 viewBox="0 0 288 288" style="enable-background:new 0 0 288 288;" xml:space="preserve">
<style type="text/css">
	.st0{fill:#FFFFFF;}
	.st1{fill:#16C3F7;}
</style>
<circle cx="145" cy="145.2" r="142.2"/>
<g>
	<rect x="86" y="204" class="st0" width="113.6" height="5.5"/>
	<polygon class="st0" points="88.2,201.4 95.9,177.4 110.2,189 	"/>
	<path class="st0" d="M97,174.8c0,0,15-24.2,25-36.9l20.8,16.7c0,0-24.4,28.9-30.6,33.1L97,174.8z"/>
	<polygon class="st0" points="166.9,80 204.6,80 144.4,152.2 123.5,135.9 	"/>
</g>
<circle class="st1" cx="44.5" cy="44.5" r="36.5"/>
<g>
	<path class="st0" d="M51.8,35H41.3l-0.6,4.2c0.6-0.1,1.1-0.1,1.8-0.1c2.6,0,5.3,0.6,7.2,2c2.1,1.4,3.3,3.6,3.3,6.8
		c0,5.1-4.4,9.6-11.7,9.6c-3.3,0-6.1-0.8-7.6-1.6l1.2-4.8c1.2,0.6,3.6,1.3,6.1,1.3c2.6,0,5.5-1.3,5.5-4.2c0-2.8-2.2-4.5-7.7-4.5
		c-1.5,0-2.6,0.1-3.6,0.3l1.8-14.3h15V35z"/>
</g>
</svg>
