<svg xmlns="http://www.w3.org/2000/svg" xmlns:xlink="http://www.w3.org/1999/xlink" width="50" zoomAndPan="magnify" viewBox="0 0 37.5 37.499999" height="50" preserveAspectRatio="xMidYMid meet" version="1.0"><defs><clipPath id="ce319240ca"><path d="M 1.316406 1.183594 L 35.816406 1.183594 L 35.816406 36.433594 L 1.316406 36.433594 Z M 1.316406 1.183594 " clip-rule="nonzero"/></clipPath></defs><g clip-path="url(#ce319240ca)"><path fill="#000000" d="M 33.171875 11.253906 L 32.09375 11.253906 C 32.921875 10.664062 33.464844 9.691406 33.464844 8.589844 C 33.464844 6.792969 32.023438 5.332031 30.25 5.332031 C 28.480469 5.332031 27.039062 6.792969 27.039062 8.589844 C 27.039062 9.691406 27.582031 10.664062 28.410156 11.253906 L 24.527344 11.253906 L 24.117188 10.835938 L 24.117188 4.117188 C 24.78125 3.976562 25.285156 3.378906 25.285156 2.664062 C 25.285156 1.847656 24.628906 1.183594 23.824219 1.183594 L 2.789062 1.183594 C 1.984375 1.183594 1.328125 1.847656 1.328125 2.664062 C 1.328125 3.378906 1.832031 3.976562 2.496094 4.117188 L 2.496094 20.171875 C 1.832031 20.308594 1.328125 20.90625 1.328125 21.621094 C 1.328125 22.4375 1.984375 23.101562 2.789062 23.101562 L 23.824219 23.101562 C 24.628906 23.101562 25.285156 22.4375 25.285156 21.621094 C 25.285156 20.90625 24.78125 20.308594 24.117188 20.171875 L 24.117188 14.214844 L 27.039062 14.214844 L 27.039062 25.597656 C 26.125 25.863281 25.378906 26.519531 24.992188 27.382812 C 24.484375 26.257812 23.367188 25.472656 22.070312 25.472656 C 20.773438 25.472656 19.65625 26.257812 19.148438 27.382812 C 18.640625 26.257812 17.523438 25.472656 16.226562 25.472656 C 14.929688 25.472656 13.8125 26.257812 13.304688 27.382812 C 12.800781 26.257812 11.679688 25.472656 10.382812 25.472656 C 9.085938 25.472656 7.96875 26.257812 7.460938 27.382812 C 6.957031 26.257812 5.839844 25.472656 4.542969 25.472656 C 2.769531 25.472656 1.328125 26.933594 1.328125 28.730469 C 1.328125 30.046875 2.101562 31.179688 3.210938 31.695312 C 2.101562 32.207031 1.328125 33.339844 1.328125 34.65625 L 1.328125 36.433594 L 1.910156 36.433594 L 1.910156 34.65625 C 1.910156 33.1875 3.089844 31.988281 4.542969 31.988281 C 5.992188 31.988281 7.171875 33.1875 7.171875 34.65625 L 7.171875 36.433594 L 7.753906 36.433594 L 7.753906 34.65625 C 7.753906 33.1875 8.933594 31.988281 10.382812 31.988281 C 11.835938 31.988281 13.015625 33.1875 13.015625 34.65625 L 13.015625 36.433594 L 13.597656 36.433594 L 13.597656 34.65625 C 13.597656 33.1875 14.777344 31.988281 16.226562 31.988281 C 17.675781 31.988281 18.855469 33.1875 18.855469 34.65625 L 18.855469 36.433594 L 19.441406 36.433594 L 19.441406 34.65625 C 19.441406 33.1875 20.621094 31.988281 22.070312 31.988281 C 23.519531 31.988281 24.699219 33.1875 24.699219 34.65625 L 24.699219 36.433594 L 25.285156 36.433594 L 25.285156 34.65625 C 25.285156 33.1875 26.464844 31.988281 27.914062 31.988281 C 29.363281 31.988281 30.542969 33.1875 30.542969 34.65625 L 30.542969 36.433594 L 31.128906 36.433594 L 31.128906 34.65625 C 31.128906 33.339844 30.355469 32.207031 29.246094 31.695312 C 30.355469 31.179688 31.128906 30.046875 31.128906 28.730469 C 31.128906 27.628906 30.582031 26.65625 29.757812 26.066406 L 33.171875 26.066406 C 33.335938 26.066406 33.464844 25.933594 33.464844 25.769531 L 33.464844 18.363281 L 35.511719 18.363281 C 35.671875 18.363281 35.800781 18.230469 35.800781 18.066406 L 35.800781 13.921875 C 35.800781 12.449219 34.621094 11.253906 33.171875 11.253906 Z M 27.621094 8.589844 C 27.621094 7.117188 28.800781 5.921875 30.25 5.921875 C 31.699219 5.921875 32.878906 7.117188 32.878906 8.589844 C 32.878906 10.058594 31.699219 11.253906 30.25 11.253906 C 28.800781 11.253906 27.621094 10.058594 27.621094 8.589844 Z M 1.910156 2.664062 C 1.910156 2.175781 2.304688 1.777344 2.789062 1.777344 L 23.824219 1.777344 C 24.308594 1.777344 24.699219 2.175781 24.699219 2.664062 C 24.699219 3.152344 24.308594 3.554688 23.824219 3.554688 L 2.789062 3.554688 C 2.304688 3.554688 1.910156 3.152344 1.910156 2.664062 Z M 24.699219 21.621094 C 24.699219 22.113281 24.308594 22.511719 23.824219 22.511719 L 2.789062 22.511719 C 2.304688 22.511719 1.910156 22.113281 1.910156 21.621094 C 1.910156 21.132812 2.304688 20.734375 2.789062 20.734375 L 23.824219 20.734375 C 24.308594 20.734375 24.699219 21.132812 24.699219 21.621094 Z M 23.53125 20.140625 L 3.082031 20.140625 L 3.082031 4.144531 L 23.53125 4.144531 L 23.53125 10.242188 L 21.109375 7.785156 C 20.996094 7.671875 20.808594 7.671875 20.695312 7.785156 L 18.941406 9.5625 C 18.828125 9.679688 18.828125 9.867188 18.941406 9.984375 L 23.03125 14.128906 C 23.085938 14.1875 23.160156 14.214844 23.238281 14.214844 L 23.53125 14.214844 Z M 22.070312 26.066406 C 23.519531 26.066406 24.699219 27.261719 24.699219 28.730469 C 24.699219 30.203125 23.519531 31.398438 22.070312 31.398438 C 20.621094 31.398438 19.441406 30.203125 19.441406 28.730469 C 19.441406 27.261719 20.621094 26.066406 22.070312 26.066406 Z M 16.226562 26.066406 C 17.675781 26.066406 18.855469 27.261719 18.855469 28.730469 C 18.855469 30.203125 17.675781 31.398438 16.226562 31.398438 C 14.777344 31.398438 13.597656 30.203125 13.597656 28.730469 C 13.597656 27.261719 14.777344 26.066406 16.226562 26.066406 Z M 10.382812 26.066406 C 11.835938 26.066406 13.015625 27.261719 13.015625 28.730469 C 13.015625 30.203125 11.835938 31.398438 10.382812 31.398438 C 8.933594 31.398438 7.753906 30.203125 7.753906 28.730469 C 7.753906 27.261719 8.933594 26.066406 10.382812 26.066406 Z M 1.910156 28.730469 C 1.910156 27.261719 3.089844 26.066406 4.542969 26.066406 C 5.992188 26.066406 7.171875 27.261719 7.171875 28.730469 C 7.171875 30.203125 5.992188 31.398438 4.542969 31.398438 C 3.089844 31.398438 1.910156 30.203125 1.910156 28.730469 Z M 7.460938 33.304688 C 7.140625 32.59375 6.574219 32.019531 5.871094 31.695312 C 6.574219 31.367188 7.140625 30.792969 7.460938 30.082031 C 7.785156 30.792969 8.351562 31.367188 9.054688 31.695312 C 8.351562 32.019531 7.785156 32.59375 7.460938 33.304688 Z M 13.304688 33.304688 C 12.984375 32.59375 12.417969 32.019531 11.714844 31.695312 C 12.417969 31.367188 12.984375 30.792969 13.304688 30.082031 C 13.628906 30.792969 14.195312 31.367188 14.898438 31.695312 C 14.195312 32.019531 13.628906 32.59375 13.304688 33.304688 Z M 19.148438 33.304688 C 18.828125 32.59375 18.261719 32.019531 17.558594 31.695312 C 18.261719 31.367188 18.828125 30.792969 19.148438 30.082031 C 19.46875 30.792969 20.035156 31.367188 20.738281 31.695312 C 20.035156 32.019531 19.46875 32.59375 19.148438 33.304688 Z M 24.992188 33.304688 C 24.671875 32.59375 24.105469 32.019531 23.402344 31.695312 C 24.105469 31.367188 24.671875 30.792969 24.992188 30.082031 C 25.3125 30.792969 25.878906 31.367188 26.582031 31.695312 C 25.878906 32.019531 25.3125 32.59375 24.992188 33.304688 Z M 30.542969 28.730469 C 30.542969 30.203125 29.363281 31.398438 27.914062 31.398438 C 26.464844 31.398438 25.285156 30.203125 25.285156 28.730469 C 25.285156 27.261719 26.464844 26.066406 27.914062 26.066406 C 29.363281 26.066406 30.542969 27.261719 30.542969 28.730469 Z M 35.21875 17.769531 L 33.464844 17.769531 L 33.464844 13.921875 L 32.878906 13.921875 L 32.878906 25.472656 L 30.542969 25.472656 L 30.542969 18.660156 L 29.960938 18.660156 L 29.960938 25.472656 L 27.621094 25.472656 L 27.621094 13.921875 C 27.621094 13.757812 27.492188 13.625 27.328125 13.625 L 23.359375 13.625 L 19.5625 9.773438 L 20.902344 8.414062 L 24.203125 11.761719 C 24.257812 11.816406 24.332031 11.847656 24.40625 11.847656 L 33.171875 11.847656 C 34.300781 11.847656 35.21875 12.777344 35.21875 13.921875 Z M 35.21875 17.769531 " fill-opacity="1" fill-rule="nonzero"/></g><path fill="#000000" d="M 21.488281 14.808594 L 14.476562 14.808594 C 14.3125 14.808594 14.183594 14.941406 14.183594 15.105469 L 14.183594 16.585938 L 8.921875 16.585938 L 8.921875 14.808594 L 12.136719 14.808594 C 12.300781 14.808594 12.429688 14.675781 12.429688 14.511719 L 12.429688 11.550781 C 12.429688 11.386719 12.300781 11.253906 12.136719 11.253906 L 8.921875 11.253906 L 8.921875 9.476562 L 12.136719 9.476562 C 12.300781 9.476562 12.429688 9.34375 12.429688 9.179688 L 12.429688 6.21875 C 12.429688 6.054688 12.300781 5.921875 12.136719 5.921875 L 5.125 5.921875 C 4.964844 5.921875 4.832031 6.054688 4.832031 6.21875 L 4.832031 9.179688 C 4.832031 9.34375 4.964844 9.476562 5.125 9.476562 L 8.339844 9.476562 L 8.339844 11.253906 L 5.125 11.253906 C 4.964844 11.253906 4.832031 11.386719 4.832031 11.550781 L 4.832031 14.511719 C 4.832031 14.675781 4.964844 14.808594 5.125 14.808594 L 8.339844 14.808594 L 8.339844 16.882812 C 8.339844 17.046875 8.46875 17.179688 8.632812 17.179688 L 14.183594 17.179688 L 14.183594 18.066406 C 14.183594 18.230469 14.3125 18.363281 14.476562 18.363281 L 21.488281 18.363281 C 21.648438 18.363281 21.777344 18.230469 21.777344 18.066406 L 21.777344 15.105469 C 21.777344 14.941406 21.648438 14.808594 21.488281 14.808594 Z M 5.417969 6.515625 L 11.84375 6.515625 L 11.84375 8.886719 L 5.417969 8.886719 Z M 5.417969 11.847656 L 11.84375 11.847656 L 11.84375 14.214844 L 5.417969 14.214844 Z M 21.195312 17.769531 L 14.765625 17.769531 L 14.765625 15.402344 L 21.195312 15.402344 Z M 21.195312 17.769531 " fill-opacity="1" fill-rule="nonzero"/><path fill="#000000" d="M 13.890625 5.921875 L 14.476562 5.921875 L 14.476562 6.515625 L 13.890625 6.515625 Z M 13.890625 5.921875 " fill-opacity="1" fill-rule="nonzero"/><path fill="#000000" d="M 13.890625 8.292969 L 14.476562 8.292969 L 14.476562 8.886719 L 13.890625 8.886719 Z M 13.890625 8.292969 " fill-opacity="1" fill-rule="nonzero"/><path fill="#000000" d="M 16.226562 8.292969 L 16.8125 8.292969 L 16.8125 8.886719 L 16.226562 8.886719 Z M 16.226562 8.292969 " fill-opacity="1" fill-rule="nonzero"/><path fill="#000000" d="M 13.890625 10.660156 L 14.476562 10.660156 L 14.476562 11.253906 L 13.890625 11.253906 Z M 13.890625 10.660156 " fill-opacity="1" fill-rule="nonzero"/><path fill="#000000" d="M 16.226562 5.921875 L 16.8125 5.921875 L 16.8125 6.515625 L 16.226562 6.515625 Z M 16.226562 5.921875 " fill-opacity="1" fill-rule="nonzero"/><path fill="#000000" d="M 18.566406 5.921875 L 19.148438 5.921875 L 19.148438 6.515625 L 18.566406 6.515625 Z M 18.566406 5.921875 " fill-opacity="1" fill-rule="nonzero"/></svg>