<svg xmlns="http://www.w3.org/2000/svg" xmlns:xlink="http://www.w3.org/1999/xlink" width="50" zoomAndPan="magnify" viewBox="0 0 37.5 37.499999" height="50" preserveAspectRatio="xMidYMid meet" version="1.0"><defs><clipPath id="4821dfcce2"><path d="M 0 4.171875 L 37.007812 4.171875 L 37.007812 33.421875 L 0 33.421875 Z M 0 4.171875 " clip-rule="nonzero"/></clipPath></defs><g clip-path="url(#4821dfcce2)"><path fill="#100f0d" d="M 36.425781 24.949219 C 36.203125 24.777344 35.953125 24.691406 35.671875 24.695312 C 35.46875 24.695312 35.273438 24.738281 35.089844 24.820312 L 34.777344 24.734375 L 33.386719 24.339844 C 33.242188 24.296875 31.890625 23.882812 31.1875 23.84375 C 29.015625 23.046875 27.710938 22.679688 27.027344 22.5 C 26.957031 22.132812 26.847656 21.730469 26.726562 21.285156 C 26.453125 20.273438 26.109375 19.015625 25.972656 17.320312 C 25.757812 14.625 23.515625 13.53125 22.324219 13.320312 C 20.949219 12.886719 20.101562 12.691406 18.75 12.691406 C 17.398438 12.691406 16.546875 12.886719 15.171875 13.320312 C 13.980469 13.53125 11.738281 14.625 11.523438 17.320312 C 11.386719 19.015625 11.046875 20.273438 10.769531 21.285156 C 10.648438 21.730469 10.542969 22.132812 10.46875 22.5 C 9.789062 22.679688 8.480469 23.046875 6.308594 23.84375 C 5.609375 23.882812 4.257812 24.296875 4.097656 24.34375 L 2.71875 24.734375 L 2.410156 24.820312 C 2.222656 24.738281 2.03125 24.695312 1.828125 24.695312 C 1.546875 24.691406 1.296875 24.777344 1.074219 24.949219 L 0 25.875 L 1.375 25.875 C 1.464844 25.921875 1.644531 26.101562 1.78125 26.234375 C 2.246094 26.6875 2.878906 27.304688 3.835938 27.425781 C 3.960938 27.441406 4.082031 27.449219 4.207031 27.449219 C 4.539062 27.445312 4.863281 27.394531 5.179688 27.296875 C 5.105469 27.4375 5.050781 27.585938 5.011719 27.742188 L 5.003906 27.804688 C 5.003906 29.175781 6.011719 31.085938 10.808594 32.417969 C 13.476562 33.15625 16.308594 33.414062 18.722656 33.414062 C 19.863281 33.417969 21.007812 33.355469 22.144531 33.226562 C 22.222656 33.25 22.300781 33.273438 22.378906 33.296875 L 22.4375 33.3125 L 22.496094 33.304688 C 24.164062 33.054688 25.578125 32.757812 26.695312 32.414062 C 30.542969 31.246094 32.496094 29.695312 32.496094 27.804688 L 32.488281 27.742188 C 32.449219 27.585938 32.390625 27.4375 32.320312 27.296875 C 32.636719 27.394531 32.960938 27.445312 33.292969 27.449219 C 33.414062 27.449219 33.539062 27.441406 33.660156 27.425781 C 34.617188 27.304688 35.253906 26.6875 35.71875 26.234375 C 35.851562 26.101562 36.035156 25.921875 36.121094 25.875 L 37.5 25.875 Z M 22.179688 32.691406 C 21.945312 32.71875 21.699219 32.746094 21.4375 32.769531 C 21.136719 32.796875 20.816406 32.816406 20.484375 32.832031 C 17.808594 32.976562 14.21875 32.820312 10.949219 31.910156 C 7.425781 30.933594 5.550781 29.523438 5.527344 27.835938 C 5.613281 27.519531 5.8125 27.179688 6.140625 26.882812 C 6.394531 26.65625 6.679688 26.480469 6.996094 26.351562 C 7.75 26.03125 8.804688 25.902344 10.195312 26.191406 C 10.585938 26.273438 11.703125 26.757812 13.148438 27.433594 C 13.304688 27.507812 13.460938 27.578125 13.625 27.65625 C 14.902344 28.257812 16.390625 28.980469 17.855469 29.691406 L 18.21875 29.863281 L 18.828125 30.160156 C 19.824219 30.640625 20.816406 31.121094 21.761719 31.570312 C 21.96875 31.667969 22.171875 31.765625 22.375 31.863281 C 22.8125 32.070312 23.238281 32.269531 23.644531 32.457031 C 23.160156 32.558594 22.671875 32.636719 22.179688 32.691406 Z M 11.242188 26.007812 L 12.351562 26.007812 L 12.511719 25.820312 C 13.28125 24.914062 14.34375 23.089844 14.785156 21.089844 C 14.929688 21.796875 15.019531 22.507812 15.046875 23.226562 C 14.808594 24.289062 13.949219 25.96875 13.402344 26.972656 C 12.535156 26.566406 11.796875 26.234375 11.242188 26.007812 Z M 26.542969 31.914062 C 26.007812 32.078125 25.398438 32.230469 24.726562 32.375 L 24.496094 32.269531 C 24 32.042969 23.46875 31.796875 22.914062 31.535156 C 22.726562 31.449219 22.542969 31.359375 22.351562 31.269531 C 21.421875 30.828125 20.433594 30.355469 19.4375 29.871094 C 20.757812 29.25 22.015625 28.636719 23.101562 28.101562 C 23.378906 27.96875 23.644531 27.835938 23.902344 27.710938 C 24.066406 27.628906 24.222656 27.554688 24.375 27.480469 C 25.8125 26.78125 26.898438 26.273438 27.304688 26.191406 C 28.695312 25.902344 29.746094 26.03125 30.503906 26.351562 C 30.820312 26.480469 31.105469 26.65625 31.359375 26.882812 C 31.683594 27.179688 31.886719 27.519531 31.96875 27.835938 C 31.945312 29.453125 30.121094 30.824219 26.542969 31.914062 Z M 22.453125 23.226562 C 22.480469 22.507812 22.566406 21.796875 22.710938 21.089844 C 23.152344 23.089844 24.21875 24.914062 24.988281 25.820312 L 25.144531 26.007812 L 26.289062 26.007812 C 25.734375 26.242188 25 26.589844 24.121094 27.019531 C 23.574219 26.019531 22.695312 24.304688 22.453125 23.226562 Z M 33.59375 26.902344 C 33.5 26.914062 33.40625 26.921875 33.3125 26.921875 C 33.292969 26.921875 33.273438 26.921875 33.253906 26.917969 C 33.128906 26.917969 33 26.90625 32.875 26.886719 C 32.859375 26.882812 32.847656 26.882812 32.832031 26.878906 C 32.699219 26.855469 32.5625 26.820312 32.433594 26.78125 C 32.40625 26.769531 32.382812 26.761719 32.355469 26.753906 C 32.222656 26.710938 32.085938 26.65625 31.949219 26.59375 C 31.925781 26.582031 31.902344 26.570312 31.878906 26.558594 C 31.796875 26.523438 31.710938 26.476562 31.628906 26.433594 C 31.371094 26.214844 31.085938 26.039062 30.777344 25.902344 C 30.429688 25.65625 30.128906 25.480469 29.429688 25.480469 L 25.386719 25.480469 C 24.4375 24.363281 23.03125 21.75 23.03125 19.308594 C 23.097656 18.617188 23.824219 17.503906 23.824219 17.503906 C 23.308594 17.632812 22.046875 19.898438 21.925781 23.273438 C 22.160156 24.40625 23.078125 26.203125 23.648438 27.25 C 23.398438 27.371094 23.140625 27.5 22.871094 27.628906 C 21.679688 28.214844 20.285156 28.898438 18.832031 29.578125 L 18.082031 29.214844 C 16.550781 28.472656 15.109375 27.777344 13.878906 27.195312 C 14.449219 26.140625 15.34375 24.386719 15.574219 23.273438 C 15.449219 19.898438 14.191406 17.628906 13.671875 17.503906 C 13.671875 17.503906 14.402344 18.617188 14.46875 19.308594 C 14.46875 21.75 13.0625 24.363281 12.113281 25.480469 L 8.070312 25.480469 C 7.367188 25.480469 7.066406 25.65625 6.714844 25.90625 C 6.410156 26.039062 6.128906 26.214844 5.871094 26.429688 C 5.789062 26.476562 5.703125 26.519531 5.621094 26.558594 C 5.597656 26.570312 5.570312 26.582031 5.546875 26.59375 C 5.410156 26.65625 5.273438 26.710938 5.140625 26.753906 C 5.117188 26.761719 5.089844 26.769531 5.066406 26.777344 C 4.933594 26.820312 4.800781 26.855469 4.664062 26.878906 C 4.652344 26.882812 4.636719 26.882812 4.625 26.886719 C 4.496094 26.90625 4.371094 26.917969 4.242188 26.917969 C 4.230469 26.917969 4.21875 26.921875 4.207031 26.921875 C 4.105469 26.921875 4.003906 26.914062 3.902344 26.902344 C 2.589844 26.738281 1.9375 25.351562 1.414062 25.351562 C 1.414062 25.351562 1.421875 25.34375 1.4375 25.332031 C 1.460938 25.316406 1.484375 25.304688 1.511719 25.292969 C 1.523438 25.285156 1.535156 25.28125 1.550781 25.277344 C 1.574219 25.265625 1.601562 25.257812 1.625 25.25 C 1.644531 25.246094 1.664062 25.242188 1.683594 25.238281 C 1.71875 25.230469 1.75 25.226562 1.785156 25.226562 C 1.800781 25.226562 1.8125 25.222656 1.828125 25.222656 C 1.839844 25.222656 1.855469 25.222656 1.867188 25.226562 C 1.890625 25.226562 1.914062 25.230469 1.9375 25.230469 C 1.976562 25.238281 2.015625 25.246094 2.054688 25.257812 C 2.082031 25.261719 2.105469 25.269531 2.132812 25.277344 C 2.179688 25.296875 2.230469 25.316406 2.277344 25.34375 C 2.300781 25.355469 2.324219 25.363281 2.351562 25.378906 C 2.4375 25.429688 2.515625 25.484375 2.59375 25.546875 C 2.6875 25.625 2.785156 25.695312 2.886719 25.757812 C 2.921875 25.777344 2.953125 25.792969 2.984375 25.808594 C 3.046875 25.84375 3.113281 25.878906 3.179688 25.90625 C 3.214844 25.921875 3.25 25.933594 3.285156 25.945312 C 3.34375 25.96875 3.402344 25.984375 3.460938 26 C 3.496094 26.007812 3.53125 26.015625 3.566406 26.023438 C 3.625 26.03125 3.683594 26.039062 3.742188 26.039062 C 3.761719 26.039062 3.785156 26.046875 3.804688 26.046875 C 3.921875 26.042969 4.035156 26.027344 4.148438 26 C 4.167969 25.992188 4.191406 25.988281 4.210938 25.980469 C 4.316406 25.949219 4.417969 25.90625 4.511719 25.855469 C 4.683594 25.753906 4.839844 25.636719 4.984375 25.503906 C 4.984375 25.503906 4.914062 25.503906 4.808594 25.507812 C 4.765625 25.507812 4.710938 25.507812 4.652344 25.507812 L 4.605469 25.511719 C 4.539062 25.511719 4.472656 25.511719 4.398438 25.511719 C 4.332031 25.511719 4.261719 25.515625 4.191406 25.515625 L 4.132812 25.515625 C 4.113281 25.515625 4.09375 25.515625 4.078125 25.515625 C 4.023438 25.515625 3.96875 25.515625 3.917969 25.511719 C 3.851562 25.511719 3.789062 25.511719 3.726562 25.511719 L 3.683594 25.507812 C 3.625 25.507812 3.570312 25.503906 3.527344 25.503906 C 3.222656 25.480469 2.859375 25.238281 2.859375 25.238281 L 4.25 24.847656 C 4.25 24.847656 5.808594 24.367188 6.410156 24.363281 C 9.03125 23.402344 10.367188 23.066406 10.933594 22.921875 C 11.074219 21.757812 11.828125 20.113281 12.046875 17.359375 C 12.289062 14.328125 15.296875 13.832031 15.296875 13.832031 C 16.589844 13.421875 17.40625 13.21875 18.75 13.21875 C 20.089844 13.21875 20.90625 13.421875 22.203125 13.832031 C 22.203125 13.832031 25.210938 14.328125 25.453125 17.359375 C 25.671875 20.113281 26.421875 21.757812 26.566406 22.921875 C 27.132812 23.066406 28.46875 23.402344 31.085938 24.363281 C 31.691406 24.367188 33.246094 24.847656 33.246094 24.847656 L 34.636719 25.238281 C 34.636719 25.238281 34.277344 25.480469 33.96875 25.503906 C 33.925781 25.507812 33.871094 25.507812 33.8125 25.511719 L 33.769531 25.511719 C 33.664062 25.515625 33.546875 25.515625 33.421875 25.515625 C 33.402344 25.515625 33.382812 25.515625 33.367188 25.515625 L 33.304688 25.515625 C 33.234375 25.515625 33.164062 25.515625 33.097656 25.511719 C 33.023438 25.511719 32.957031 25.511719 32.894531 25.511719 L 32.847656 25.511719 C 32.789062 25.507812 32.734375 25.507812 32.6875 25.507812 C 32.582031 25.503906 32.515625 25.503906 32.515625 25.503906 C 32.660156 25.636719 32.816406 25.753906 32.984375 25.855469 C 33.082031 25.90625 33.179688 25.949219 33.285156 25.980469 C 33.308594 25.988281 33.328125 25.996094 33.351562 26 C 33.457031 26.027344 33.5625 26.042969 33.671875 26.042969 C 33.699219 26.046875 33.726562 26.042969 33.757812 26.039062 C 33.816406 26.039062 33.875 26.03125 33.933594 26.023438 C 33.964844 26.015625 34 26.007812 34.035156 26 C 34.097656 25.988281 34.15625 25.96875 34.214844 25.949219 C 34.25 25.933594 34.285156 25.921875 34.320312 25.90625 C 34.386719 25.878906 34.453125 25.84375 34.515625 25.808594 C 34.546875 25.792969 34.578125 25.777344 34.609375 25.757812 C 34.710938 25.695312 34.8125 25.625 34.90625 25.546875 C 34.980469 25.484375 35.0625 25.429688 35.148438 25.378906 C 35.171875 25.363281 35.195312 25.355469 35.222656 25.34375 C 35.269531 25.316406 35.316406 25.296875 35.367188 25.277344 C 35.394531 25.269531 35.417969 25.261719 35.441406 25.257812 C 35.480469 25.246094 35.519531 25.238281 35.558594 25.230469 C 35.585938 25.230469 35.605469 25.226562 35.628906 25.226562 C 35.640625 25.226562 35.65625 25.222656 35.671875 25.222656 C 35.6875 25.222656 35.699219 25.226562 35.714844 25.226562 C 35.746094 25.226562 35.78125 25.230469 35.8125 25.238281 C 35.835938 25.242188 35.855469 25.246094 35.871094 25.25 C 35.898438 25.257812 35.925781 25.265625 35.949219 25.277344 C 35.964844 25.28125 35.976562 25.289062 35.988281 25.292969 C 36.007812 25.300781 36.023438 25.3125 36.042969 25.324219 C 36.074219 25.34375 36.082031 25.351562 36.082031 25.351562 C 35.558594 25.351562 34.910156 26.738281 33.597656 26.902344 Z M 18.011719 11.53125 C 18.257812 11.582031 18.507812 11.609375 18.757812 11.609375 C 19.0625 11.609375 19.363281 11.570312 19.660156 11.492188 C 19.957031 11.414062 20.242188 11.300781 20.507812 11.152344 C 20.777344 11.003906 21.023438 10.820312 21.246094 10.609375 C 21.464844 10.398438 21.660156 10.160156 21.820312 9.902344 C 21.984375 9.640625 22.109375 9.363281 22.203125 9.070312 C 22.292969 8.777344 22.347656 8.476562 22.363281 8.167969 C 22.378906 7.859375 22.355469 7.554688 22.292969 7.253906 C 22.234375 6.953125 22.132812 6.664062 22 6.390625 C 21.863281 6.113281 21.699219 5.859375 21.5 5.625 C 21.296875 5.390625 21.074219 5.1875 20.820312 5.007812 C 20.570312 4.832031 20.300781 4.691406 20.011719 4.585938 C 19.726562 4.476562 19.429688 4.410156 19.125 4.375 C 18.820312 4.34375 18.515625 4.351562 18.210938 4.398438 C 17.910156 4.445312 17.617188 4.527344 17.335938 4.648438 C 17.054688 4.769531 16.789062 4.921875 16.546875 5.113281 C 16.304688 5.300781 16.089844 5.515625 15.902344 5.757812 C 15.710938 6 15.558594 6.261719 15.4375 6.546875 C 15.316406 6.828125 15.230469 7.121094 15.183594 7.425781 C 15.136719 7.730469 15.128906 8.035156 15.15625 8.339844 C 15.1875 8.644531 15.253906 8.941406 15.359375 9.230469 C 15.46875 9.519531 15.605469 9.792969 15.78125 10.042969 C 15.957031 10.296875 16.160156 10.523438 16.390625 10.726562 C 16.621094 10.925781 16.875 11.097656 17.152344 11.230469 C 17.425781 11.367188 17.714844 11.46875 18.011719 11.53125 Z M 17.058594 5.402344 C 17.402344 5.179688 17.773438 5.027344 18.175781 4.953125 C 18.578125 4.875 18.976562 4.878906 19.378906 4.964844 C 19.777344 5.046875 20.148438 5.203125 20.484375 5.433594 C 20.820312 5.667969 21.101562 5.953125 21.328125 6.296875 C 21.550781 6.640625 21.699219 7.011719 21.777344 7.414062 C 21.851562 7.816406 21.847656 8.21875 21.765625 8.621094 C 21.683594 9.023438 21.527344 9.390625 21.296875 9.730469 C 21.066406 10.070312 20.78125 10.351562 20.4375 10.578125 C 20.097656 10.800781 19.722656 10.953125 19.324219 11.027344 C 18.921875 11.105469 18.519531 11.101562 18.121094 11.015625 C 17.71875 10.933594 17.351562 10.773438 17.015625 10.542969 C 16.675781 10.3125 16.394531 10.027344 16.171875 9.683594 C 15.949219 9.339844 15.796875 8.96875 15.722656 8.566406 C 15.644531 8.164062 15.648438 7.761719 15.734375 7.359375 C 15.816406 6.957031 15.972656 6.585938 16.203125 6.25 C 16.433594 5.910156 16.71875 5.628906 17.058594 5.402344 Z M 17.058594 5.402344 " fill-opacity="1" fill-rule="nonzero"/></g></svg>