<?xml version="1.0" encoding="utf-8"?>
<!-- Generator: Adobe Illustrator 22.1.0, SVG Export Plug-In . SVG Version: 6.00 Build 0)  -->
<svg version="1.1" id="Layer_1" xmlns="http://www.w3.org/2000/svg" xmlns:xlink="http://www.w3.org/1999/xlink" x="0px" y="0px"
	 viewBox="0 0 288 288" style="enable-background:new 0 0 288 288;" xml:space="preserve">
<style type="text/css">
	.st0{fill:#FFFFFF;}
	.st1{fill:#16C3F7;}
</style>
<circle cx="145" cy="145.2" r="142.2"/>
<g>
	<path class="st0" d="M84.4,174.4h12c1.1,0,1.9,0.9,1.9,1.9v17.1h94v-17.1c0-1.1,0.9-1.9,1.9-1.9h12c1.1,0,1.9,0.9,1.9,1.9v31
		c0,1.1-0.9,1.9-1.9,1.9H84.4c-1.1,0-1.9-0.9-1.9-1.9v-31C82.5,175.3,83.3,174.4,84.4,174.4z"/>
	<path class="st0" d="M126.5,166h37.7c1.3,0,2.3,1,2.3,2.3v10.2c0,1.3-1,2.3-2.3,2.3h-37.7c-1.3,0-2.3-1-2.3-2.3v-10.2
		C124.3,167,125.3,166,126.5,166z"/>
	<path class="st0" d="M119.6,109.1l21.8-25.6c1.7-2,6.1-2,7.8,0l21.8,25.6l21.8,25.6c1.7,2-0.4,4.6-3.9,4.6H166v21.1
		c0,1.1-0.9,1.9-1.9,1.9h-38.3c-1.1,0-1.9-0.9-1.9-1.9v-21.1h-22.2c-3.5,0-5.7-2.5-3.9-4.6L119.6,109.1z"/>
</g>
<circle class="st1" cx="44.5" cy="44.5" r="36.5"/>
<g>
	<path class="st0" d="M43.5,57.1v-6.5H31.5v-4.2l10.3-16.6h7.8v16h3.2v4.8h-3.2v6.5H43.5z M43.5,45.8v-6c0-1.6,0.1-3.3,0.2-5.1h-0.1
		c-0.9,1.8-1.6,3.4-2.6,5.1l-3.6,6l0,0.1H43.5z"/>
</g>
</svg>
