<svg xmlns="http://www.w3.org/2000/svg" xmlns:xlink="http://www.w3.org/1999/xlink" width="50" zoomAndPan="magnify" viewBox="0 0 37.5 37.499999" height="50" preserveAspectRatio="xMidYMid meet" version="1.0"><defs><clipPath id="33e1ddd455"><path d="M 13 26 L 25 26 L 25 36.011719 L 13 36.011719 Z M 13 26 " clip-rule="nonzero"/></clipPath><clipPath id="877a056072"><path d="M 8 1.511719 L 29 1.511719 L 29 17 L 8 17 Z M 8 1.511719 " clip-rule="nonzero"/></clipPath><clipPath id="669b92a6b6"><path d="M 7.890625 18 L 29.640625 18 L 29.640625 29 L 7.890625 29 Z M 7.890625 18 " clip-rule="nonzero"/></clipPath></defs><g clip-path="url(#33e1ddd455)"><path fill="#100f0d" d="M 16.085938 26.722656 C 15.1875 26.722656 14.316406 27.226562 13.953125 27.960938 C 13.484375 28.90625 13.835938 30.03125 14.320312 30.769531 C 14.855469 31.589844 15.660156 32.234375 16.441406 32.859375 L 16.878906 33.210938 C 17.539062 33.738281 18.273438 34.320312 18.78125 35.035156 C 19.292969 34.320312 20.027344 33.738281 20.683594 33.210938 L 21.125 32.859375 C 21.902344 32.234375 22.707031 31.585938 23.246094 30.769531 C 23.730469 30.03125 24.082031 28.90625 23.613281 27.960938 C 23.242188 27.214844 22.34375 26.703125 21.425781 26.722656 C 20.433594 26.742188 19.5 27.636719 19.035156 28.167969 C 18.90625 28.3125 18.65625 28.3125 18.53125 28.167969 C 18.0625 27.636719 17.132812 26.742188 16.136719 26.722656 C 16.121094 26.722656 16.101562 26.722656 16.085938 26.722656 Z M 18.78125 36.011719 C 18.65625 36.011719 18.539062 35.941406 18.484375 35.828125 C 18.0625 35.011719 17.25 34.363281 16.460938 33.734375 L 16.019531 33.382812 C 15.199219 32.726562 14.351562 32.046875 13.757812 31.136719 C 13.171875 30.246094 12.753906 28.863281 13.347656 27.664062 C 13.839844 26.675781 14.953125 26.027344 16.148438 26.050781 C 17.230469 26.074219 18.191406 26.847656 18.78125 27.453125 C 19.371094 26.847656 20.332031 26.074219 21.414062 26.050781 C 22.613281 26.03125 23.726562 26.675781 24.214844 27.664062 C 24.808594 28.863281 24.394531 30.246094 23.808594 31.136719 C 23.210938 32.042969 22.363281 32.726562 21.546875 33.382812 L 21.105469 33.734375 C 20.316406 34.363281 19.5 35.011719 19.082031 35.828125 C 19.023438 35.941406 18.90625 36.011719 18.78125 36.011719 " fill-opacity="1" fill-rule="nonzero"/></g><g clip-path="url(#877a056072)"><path fill="#100f0d" d="M 24.859375 16.226562 C 23.867188 16.226562 22.898438 15.796875 22.238281 15.042969 C 22.113281 14.902344 22.117188 14.679688 22.257812 14.558594 C 22.398438 14.4375 22.597656 14.4375 22.722656 14.578125 C 22.722656 14.578125 22.730469 14.589844 22.730469 14.589844 C 23.378906 15.328125 24.371094 15.679688 25.320312 15.515625 C 26.566406 15.304688 27.375 14.566406 27.773438 14.101562 C 26.839844 13.847656 26.113281 13.246094 25.613281 12.300781 C 24.988281 11.125 24.859375 9.929688 24.71875 8.660156 C 24.699219 8.492188 24.683594 8.324219 24.664062 8.152344 C 24.554688 7.214844 24.398438 6.21875 23.996094 5.320312 C 23.167969 3.472656 21.023438 2.183594 18.78125 2.183594 C 16.539062 2.183594 14.398438 3.472656 13.570312 5.320312 C 13.167969 6.21875 13.011719 7.214844 12.902344 8.152344 C 12.878906 8.324219 12.863281 8.492188 12.84375 8.660156 C 12.707031 9.929688 12.574219 11.125 11.949219 12.300781 C 11.449219 13.246094 10.726562 13.847656 9.792969 14.101562 C 10.195312 14.566406 11.003906 15.304688 12.246094 15.515625 C 13.195312 15.679688 14.183594 15.328125 14.824219 14.597656 L 15.09375 14.800781 L 15.347656 15.019531 L 15.074219 14.820312 L 15.328125 15.042969 C 14.535156 15.945312 13.3125 16.378906 12.132812 16.179688 C 9.96875 15.808594 8.957031 14.113281 8.910156 14.042969 C 8.855469 13.945312 8.851562 13.824219 8.902344 13.722656 C 8.953125 13.621094 9.050781 13.554688 9.164062 13.539062 C 10.144531 13.421875 10.863281 12.914062 11.355469 11.988281 C 11.921875 10.925781 12.046875 9.789062 12.175781 8.589844 C 12.195312 8.417969 12.210938 8.246094 12.234375 8.074219 C 12.347656 7.082031 12.515625 6.027344 12.957031 5.046875 C 13.890625 2.964844 16.285156 1.511719 18.78125 1.511719 C 21.28125 1.511719 23.675781 2.964844 24.605469 5.046875 C 25.046875 6.027344 25.214844 7.082031 25.332031 8.074219 C 25.351562 8.246094 25.367188 8.417969 25.386719 8.589844 C 25.519531 9.789062 25.644531 10.925781 26.207031 11.988281 C 26.699219 12.914062 27.417969 13.421875 28.402344 13.539062 C 28.511719 13.554688 28.613281 13.621094 28.660156 13.722656 C 28.710938 13.824219 28.707031 13.945312 28.652344 14.042969 C 28.609375 14.113281 27.597656 15.808594 25.433594 16.179688 C 25.242188 16.210938 25.050781 16.226562 24.859375 16.226562 " fill-opacity="1" fill-rule="nonzero"/></g><path fill="#100f0d" d="M 18.78125 17.527344 C 17.160156 17.527344 15.671875 16.5625 14.792969 14.949219 C 14.296875 14.039062 14.035156 12.984375 14.035156 11.894531 C 14.035156 11.710938 14.1875 11.558594 14.371094 11.558594 C 14.558594 11.558594 14.707031 11.710938 14.707031 11.894531 C 14.707031 12.871094 14.941406 13.816406 15.382812 14.628906 C 16.140625 16.023438 17.414062 16.855469 18.78125 16.855469 C 20.148438 16.855469 21.417969 16.027344 22.175781 14.636719 C 22.621094 13.824219 22.855469 12.875 22.855469 11.894531 C 22.855469 11.710938 23.007812 11.558594 23.191406 11.558594 C 23.378906 11.558594 23.527344 11.710938 23.527344 11.894531 C 23.527344 12.988281 23.265625 14.046875 22.765625 14.960938 C 21.886719 16.566406 20.398438 17.527344 18.78125 17.527344 " fill-opacity="1" fill-rule="nonzero"/><g clip-path="url(#669b92a6b6)"><path fill="#100f0d" d="M 12.179688 28.429688 C 12.144531 28.429688 12.105469 28.421875 12.070312 28.410156 C 9.597656 27.578125 8.175781 26.558594 8.113281 26.515625 C 8.003906 26.433594 7.953125 26.296875 7.984375 26.164062 C 8.035156 25.957031 9.253906 21.101562 11.144531 19.40625 C 12.875 17.851562 14.128906 18.308594 15.578125 18.839844 C 16.460938 19.164062 17.460938 19.53125 18.78125 19.53125 C 20.101562 19.53125 21.101562 19.164062 21.984375 18.839844 C 23.4375 18.308594 24.691406 17.851562 26.421875 19.40625 C 28.308594 21.101562 29.527344 25.957031 29.578125 26.164062 C 29.617188 26.3125 29.546875 26.464844 29.414062 26.539062 C 28.117188 27.246094 26.785156 27.832031 25.464844 28.28125 C 25.289062 28.34375 25.097656 28.25 25.039062 28.074219 C 24.980469 27.898438 25.070312 27.707031 25.246094 27.648438 C 26.453125 27.234375 27.667969 26.707031 28.859375 26.074219 C 28.585938 25.058594 27.476562 21.257812 25.972656 19.90625 C 24.542969 18.621094 23.617188 18.957031 22.214844 19.472656 C 21.28125 19.8125 20.222656 20.199219 18.78125 20.199219 C 17.34375 20.199219 16.28125 19.8125 15.347656 19.472656 C 13.949219 18.957031 13.023438 18.621094 11.59375 19.90625 C 10.074219 21.269531 8.960938 25.121094 8.695312 26.097656 C 9.152344 26.390625 10.417969 27.144531 12.285156 27.773438 C 12.460938 27.835938 12.554688 28.023438 12.496094 28.199219 C 12.449219 28.339844 12.316406 28.429688 12.179688 28.429688 " fill-opacity="1" fill-rule="nonzero"/></g></svg>