<?xml version="1.0" encoding="utf-8"?>
<!-- Generator: Adobe Illustrator 22.1.0, SVG Export Plug-In . SVG Version: 6.00 Build 0)  -->
<svg version="1.1" id="Layer_1" xmlns="http://www.w3.org/2000/svg" xmlns:xlink="http://www.w3.org/1999/xlink" x="0px" y="0px"
	 viewBox="0 0 288 288" style="enable-background:new 0 0 288 288;" xml:space="preserve">
<style type="text/css">
	.st0{fill:#FFFFFF;}
	.st1{fill:#16C3F7;}
</style>
<circle cx="145" cy="145.2" r="142.2"/>
<g>
	<path class="st0" d="M136.9,89.5c-18.9,1.8-36.7,10.4-37.5,31c-0.9,23.2,18.4,30,37.5,34.7V181c-9.4-4.1-9.7-15.1-9.7-15.1l-32,3.6
		c2.5,22.5,21.9,30.8,41.7,32.1v8.6h6.7V81.4h-6.7V89.5z M136.9,127.1c-0.7-0.3-1.3-0.5-1.8-0.8c-8.3-4.3-7.2-13,1.8-16.1V127.1z"/>
	<path class="st0" d="M185.9,146.5c-9.6-8.5-22.6-12.2-33.6-15v-20.8c6.6,3.1,7.9,9.6,7.9,9.6l31.1-5.1c-3.5-14.4-18.7-23.9-39-25.7
		v-8.1h-5.4v128.9h5.4v-8.9c11-1.1,20.8-3.9,26-7C194.9,184.3,201.6,160.5,185.9,146.5z M152.3,181.8v-22.4
		c7.7,2.6,10.3,5.2,11.5,9.5C165.3,174.1,161.6,179.8,152.3,181.8z"/>
</g>
<circle class="st1" cx="44.5" cy="44.5" r="36.5"/>
<g>
	<path class="st0" d="M35.1,51.3c1.1,0.6,3.7,1.7,6.3,1.7c3.3,0,5-1.6,5-3.6c0-2.7-2.7-3.9-5.5-3.9h-2.6v-4.6h2.5
		c2.1,0,4.8-0.8,4.8-3.1c0-1.6-1.3-2.9-4-2.9c-2.2,0-4.6,1-5.7,1.6l-1.3-4.6c1.6-1,4.9-2.1,8.4-2.1c5.8,0,9,3.1,9,6.8
		c0,2.9-1.6,5.2-5,6.3V43c3.3,0.6,5.9,3.1,5.9,6.7c0,4.8-4.2,8.3-11.2,8.3c-3.5,0-6.5-0.9-8.1-1.9L35.1,51.3z"/>
</g>
</svg>
