<svg xmlns="http://www.w3.org/2000/svg" xmlns:xlink="http://www.w3.org/1999/xlink" width="50" zoomAndPan="magnify" viewBox="0 0 37.5 37.499999" height="50" preserveAspectRatio="xMidYMid meet" version="1.0"><defs><clipPath id="850aca681b"><path d="M 0 1.195312 L 37.007812 1.195312 L 37.007812 36.445312 L 0 36.445312 Z M 0 1.195312 " clip-rule="nonzero"/></clipPath></defs><path fill="#000000" d="M 12.902344 25.871094 C 12.902344 25.871094 12.902344 25.867188 12.902344 25.867188 C 13.8125 23.773438 14.011719 23.34375 14.050781 23.261719 C 14.085938 23.214844 14.105469 23.15625 14.105469 23.09375 C 14.105469 23.09375 14.105469 23.09375 14.105469 23.089844 C 14.105469 22.925781 13.972656 22.792969 13.808594 22.792969 L 8.191406 22.792969 C 7.972656 22.792969 7.972656 22.792969 6.773438 25.558594 C 5.582031 26.429688 5.457031 28.578125 5.453125 28.671875 C 5.445312 28.753906 5.476562 28.832031 5.53125 28.890625 C 5.589844 28.949219 5.667969 28.984375 5.75 28.984375 L 11.363281 28.984375 C 11.523438 28.984375 11.652344 28.859375 11.660156 28.703125 C 11.660156 28.683594 11.78125 26.671875 12.792969 26 C 12.804688 25.992188 12.8125 25.984375 12.824219 25.972656 C 12.832031 25.96875 12.839844 25.960938 12.84375 25.953125 C 12.867188 25.929688 12.886719 25.902344 12.902344 25.871094 Z M 8.375 23.390625 L 13.34375 23.390625 C 13.164062 23.773438 12.886719 24.410156 12.433594 25.453125 L 7.464844 25.453125 C 8.035156 24.148438 8.273438 23.609375 8.375 23.390625 Z M 11.09375 28.386719 L 6.074219 28.386719 C 6.164062 27.710938 6.445312 26.554688 7.113281 26.050781 L 11.90625 26.050781 C 11.339844 26.8125 11.152344 27.882812 11.09375 28.386719 Z M 11.09375 28.386719 " fill-opacity="1" fill-rule="nonzero"/><path fill="#000000" d="M 24.023438 24.535156 C 24.023438 24.539062 24.023438 24.539062 24.023438 24.539062 C 24.039062 24.570312 24.058594 24.597656 24.082031 24.621094 C 24.085938 24.628906 24.09375 24.636719 24.101562 24.640625 C 24.113281 24.652344 24.121094 24.660156 24.132812 24.667969 C 25.144531 25.339844 25.261719 27.347656 25.265625 27.371094 C 25.273438 27.527344 25.402344 27.652344 25.5625 27.652344 L 31.175781 27.652344 C 31.257812 27.652344 31.335938 27.617188 31.390625 27.558594 C 31.449219 27.5 31.476562 27.417969 31.472656 27.335938 C 31.46875 27.246094 31.34375 25.097656 30.148438 24.222656 C 28.953125 21.460938 28.949219 21.460938 28.730469 21.460938 L 23.117188 21.460938 C 22.953125 21.460938 22.820312 21.59375 22.820312 21.757812 C 22.820312 21.820312 22.839844 21.878906 22.871094 21.929688 C 22.914062 22.011719 23.113281 22.441406 24.023438 24.535156 Z M 30.847656 27.054688 L 25.832031 27.054688 C 25.773438 26.550781 25.585938 25.480469 25.019531 24.71875 L 29.8125 24.71875 C 30.53125 25.257812 30.773438 26.476562 30.847656 27.054688 Z M 28.550781 22.058594 C 28.648438 22.273438 28.890625 22.816406 29.457031 24.121094 L 24.492188 24.121094 C 24.039062 23.078125 23.761719 22.441406 23.582031 22.058594 Z M 28.550781 22.058594 " fill-opacity="1" fill-rule="nonzero"/><path fill="#000000" d="M 11.921875 30.386719 L 10.324219 29.542969 C 10.320312 29.539062 10.316406 29.539062 10.3125 29.539062 C 10.292969 29.53125 10.273438 29.527344 10.253906 29.519531 C 10.234375 29.515625 10.214844 29.511719 10.195312 29.507812 C 10.191406 29.507812 10.1875 29.507812 10.183594 29.507812 L 6.171875 29.507812 C 5.542969 29.507812 5.03125 30.019531 5.03125 30.652344 C 5.03125 31.28125 5.542969 31.796875 6.171875 31.796875 L 10.183594 31.796875 C 10.21875 31.796875 10.253906 31.789062 10.289062 31.773438 C 10.292969 31.773438 10.300781 31.769531 10.308594 31.765625 C 10.3125 31.765625 10.316406 31.761719 10.324219 31.761719 L 11.917969 30.914062 C 12.015625 30.863281 12.078125 30.761719 12.078125 30.652344 C 12.078125 30.539062 12.015625 30.4375 11.921875 30.386719 Z M 9.886719 31.199219 L 6.171875 31.199219 C 5.871094 31.199219 5.625 30.953125 5.625 30.652344 C 5.625 30.347656 5.871094 30.101562 6.171875 30.101562 L 9.886719 30.101562 Z M 10.480469 31.003906 L 10.480469 30.300781 L 11.144531 30.652344 Z M 10.480469 31.003906 " fill-opacity="1" fill-rule="nonzero"/><path fill="#000000" d="M 28.578125 28.328125 C 28.558594 28.320312 28.542969 28.316406 28.523438 28.3125 C 28.503906 28.308594 28.484375 28.300781 28.464844 28.300781 C 28.460938 28.300781 28.457031 28.300781 28.453125 28.300781 L 26.648438 28.339844 C 26.539062 28.339844 26.4375 28.402344 26.386719 28.503906 C 26.339844 28.601562 26.347656 28.71875 26.414062 28.808594 L 27.460938 30.285156 C 27.464844 30.289062 27.46875 30.289062 27.472656 30.292969 C 27.496094 30.324219 27.527344 30.355469 27.566406 30.375 C 27.570312 30.375 27.570312 30.375 27.570312 30.378906 L 31.160156 32.179688 C 31.320312 32.261719 31.496094 32.300781 31.667969 32.300781 C 32.085938 32.300781 32.488281 32.070312 32.6875 31.671875 C 32.824219 31.398438 32.847656 31.085938 32.75 30.796875 C 32.65625 30.507812 32.453125 30.269531 32.179688 30.132812 L 28.589844 28.332031 C 28.585938 28.328125 28.582031 28.328125 28.578125 28.328125 Z M 27.972656 28.90625 L 27.660156 29.535156 L 27.222656 28.921875 Z M 32.1875 30.984375 C 32.234375 31.125 32.222656 31.273438 32.15625 31.402344 C 32.023438 31.671875 31.695312 31.78125 31.425781 31.648438 L 28.101562 29.976562 L 28.589844 28.996094 L 31.914062 30.667969 C 32.042969 30.734375 32.140625 30.84375 32.1875 30.984375 Z M 32.1875 30.984375 " fill-opacity="1" fill-rule="nonzero"/><g clip-path="url(#850aca681b)"><path fill="#000000" d="M 37.441406 33.496094 C 37.441406 33.460938 37.433594 33.429688 37.417969 33.394531 C 37.417969 33.386719 37.414062 33.378906 37.410156 33.371094 C 37.40625 33.363281 37.402344 33.351562 37.398438 33.34375 L 35.355469 30 C 36.734375 29.242188 37.484375 27.6875 37.195312 26.105469 L 35.867188 18.757812 C 35.703125 17.859375 35.097656 17.128906 34.28125 16.792969 C 34.765625 16.089844 35.054688 15.234375 35.054688 14.3125 C 35.054688 11.90625 33.105469 9.949219 30.707031 9.949219 C 28.308594 9.949219 26.359375 11.910156 26.359375 14.316406 C 26.359375 16.34375 27.75 18.050781 29.621094 18.535156 C 29.378906 19.035156 29.269531 19.589844 29.3125 20.144531 C 29.257812 20.101562 29.195312 20.078125 29.128906 20.078125 L 24.945312 20.078125 L 24.109375 11.453125 C 24.09375 11.300781 23.964844 11.183594 23.8125 11.183594 L 15.214844 11.183594 C 15.058594 11.183594 14.929688 11.308594 14.917969 11.464844 L 14.726562 14.664062 C 14.671875 14.269531 14.617188 13.878906 14.566406 13.5 C 14.34375 11.882812 14.164062 10.5625 13.769531 9.753906 C 15.417969 9.132812 16.59375 7.539062 16.59375 5.671875 C 16.59375 3.265625 14.644531 1.308594 12.25 1.308594 C 9.851562 1.308594 7.902344 3.265625 7.902344 5.671875 C 7.902344 6.402344 8.085938 7.09375 8.402344 7.699219 C 7.050781 8.195312 6.203125 8.96875 5.816406 10.058594 C 3.875 10.492188 2.417969 12.234375 2.417969 14.316406 C 2.417969 15.234375 2.703125 16.089844 3.191406 16.792969 C 2.371094 17.128906 1.765625 17.859375 1.605469 18.757812 L 0.273438 26.105469 C -0.0117188 27.6875 0.738281 29.242188 2.117188 30 L 0.0742188 33.34375 C 0.0664062 33.351562 0.0664062 33.363281 0.0625 33.371094 C 0.0585938 33.378906 0.0546875 33.386719 0.0507812 33.394531 C 0.0390625 33.429688 0.03125 33.460938 0.03125 33.496094 C 0.03125 33.496094 0.03125 33.5 0.03125 33.5 L 0.03125 36.035156 C 0.03125 36.199219 0.164062 36.332031 0.328125 36.332031 L 37.144531 36.332031 C 37.308594 36.332031 37.441406 36.199219 37.441406 36.035156 L 37.441406 33.5 C 37.441406 33.5 37.441406 33.496094 37.441406 33.496094 Z M 26.953125 14.316406 C 26.953125 12.238281 28.636719 10.546875 30.707031 10.546875 C 32.777344 10.546875 34.460938 12.238281 34.460938 14.316406 C 34.460938 16.390625 32.777344 18.082031 30.707031 18.082031 C 28.636719 18.082031 26.953125 16.390625 26.953125 14.316406 Z M 30.707031 18.679688 C 31.960938 18.679688 33.089844 18.140625 33.882812 17.285156 C 34.601562 17.507812 35.144531 18.109375 35.28125 18.863281 L 36.613281 26.214844 C 36.855469 27.550781 36.214844 28.859375 35.042969 29.492188 L 30.128906 21.449219 L 29.9375 20.382812 C 29.828125 19.78125 29.933594 19.175781 30.230469 18.652344 C 30.386719 18.667969 30.546875 18.679688 30.707031 18.679688 Z M 15.496094 11.78125 L 23.542969 11.78125 L 24.347656 20.078125 L 16.074219 20.078125 C 16.054688 19.957031 16.019531 19.839844 15.96875 19.726562 C 15.625 18.917969 15.375 18.046875 15.175781 17.15625 Z M 12.25 1.902344 C 14.316406 1.902344 16.003906 3.59375 16.003906 5.671875 C 16.003906 7.75 14.320312 9.4375 12.25 9.4375 C 10.179688 9.4375 8.496094 7.75 8.496094 5.671875 C 8.496094 3.59375 10.179688 1.902344 12.25 1.902344 Z M 8.726562 8.21875 C 9.515625 9.316406 10.800781 10.035156 12.25 10.035156 C 12.574219 10.035156 12.886719 9.996094 13.191406 9.929688 C 13.574219 10.621094 13.761719 12 13.976562 13.582031 C 14.136719 14.765625 14.316406 16.039062 14.59375 17.285156 C 14.59375 17.289062 14.59375 17.289062 14.597656 17.289062 C 14.800781 18.207031 15.0625 19.117188 15.425781 19.960938 C 15.542969 20.242188 15.539062 20.5625 15.414062 20.835938 C 15.285156 21.113281 15.054688 21.3125 14.765625 21.402344 C 14.230469 21.5625 13.660156 21.273438 13.460938 20.738281 C 12.777344 18.871094 12.390625 17.011719 12.316406 15.210938 C 12.527344 14.277344 12.804688 13.378906 13.160156 12.527344 C 13.222656 12.375 13.152344 12.199219 13 12.136719 C 12.851562 12.074219 12.675781 12.144531 12.613281 12.296875 C 12.246094 13.179688 11.957031 14.105469 11.742188 15.070312 C 11.742188 15.070312 11.742188 15.074219 11.738281 15.074219 C 11.390625 16.640625 11.25 18.316406 11.304688 20.078125 L 8.34375 20.078125 C 8.273438 20.078125 8.210938 20.101562 8.160156 20.144531 C 8.199219 19.585938 8.089844 19.035156 7.847656 18.535156 C 9.71875 18.050781 11.109375 16.34375 11.109375 14.3125 C 11.109375 11.90625 9.160156 9.949219 6.761719 9.949219 C 6.671875 9.949219 6.585938 9.957031 6.496094 9.964844 C 6.875 9.175781 7.613281 8.601562 8.726562 8.21875 Z M 11.898438 20.078125 C 11.871094 19.191406 11.894531 18.328125 11.96875 17.488281 C 12.121094 18.347656 12.332031 19.210938 12.609375 20.078125 Z M 6.761719 10.546875 C 8.832031 10.546875 10.515625 12.238281 10.515625 14.316406 C 10.515625 16.390625 8.832031 18.082031 6.761719 18.082031 C 4.695312 18.082031 3.011719 16.394531 3.011719 14.316406 C 3.011719 12.238281 4.695312 10.546875 6.761719 10.546875 Z M 0.855469 26.214844 L 2.1875 18.863281 C 2.324219 18.109375 2.867188 17.507812 3.585938 17.285156 C 4.382812 18.140625 5.511719 18.679688 6.761719 18.679688 C 6.925781 18.679688 7.082031 18.667969 7.238281 18.652344 C 7.535156 19.175781 7.640625 19.78125 7.535156 20.382812 L 7.339844 21.449219 L 2.425781 29.492188 C 1.253906 28.859375 0.613281 27.550781 0.855469 26.214844 Z M 7.878906 21.707031 L 8.507812 20.675781 L 12.8125 20.675781 C 12.84375 20.765625 12.871094 20.855469 12.90625 20.945312 C 13.152344 21.621094 13.785156 22.042969 14.464844 22.042969 C 14.621094 22.042969 14.78125 22.019531 14.9375 21.972656 C 15.386719 21.835938 15.753906 21.511719 15.949219 21.089844 C 16.011719 20.957031 16.054688 20.816406 16.078125 20.675781 L 28.960938 20.675781 L 29.59375 21.707031 L 36.613281 33.199219 L 24.558594 33.199219 L 24.558594 30.746094 C 24.558594 30.742188 24.554688 30.738281 24.554688 30.738281 C 24.554688 30.710938 24.550781 30.683594 24.542969 30.660156 L 24.539062 30.644531 C 24.535156 30.636719 24.53125 30.628906 24.53125 30.621094 L 23.054688 26.210938 C 23.015625 26.089844 22.902344 26.007812 22.773438 26.007812 L 14.695312 26.007812 C 14.566406 26.007812 14.453125 26.089844 14.414062 26.210938 L 12.941406 30.621094 C 12.9375 30.628906 12.9375 30.636719 12.933594 30.644531 L 12.929688 30.660156 C 12.917969 30.683594 12.914062 30.710938 12.914062 30.738281 C 12.914062 30.738281 12.914062 30.742188 12.914062 30.746094 L 12.914062 33.199219 L 0.855469 33.199219 Z M 23.964844 31.050781 L 23.964844 31.820312 L 13.507812 31.820312 L 13.507812 31.050781 Z M 13.507812 32.417969 L 23.964844 32.417969 L 23.964844 33.195312 L 13.507812 33.195312 Z M 13.625 30.445312 L 14.910156 26.605469 L 22.5625 26.605469 L 23.84375 30.445312 Z M 0.625 35.738281 L 0.625 33.796875 L 36.847656 33.796875 L 36.847656 35.738281 Z M 0.625 35.738281 " fill-opacity="1" fill-rule="nonzero"/></g></svg>