<svg xmlns="http://www.w3.org/2000/svg" xmlns:xlink="http://www.w3.org/1999/xlink" width="50" zoomAndPan="magnify" viewBox="0 0 37.5 37.499999" height="50" preserveAspectRatio="xMidYMid meet" version="1.0"><defs><clipPath id="55ef199c61"><path d="M 9 1.4375 L 28 1.4375 L 28 35.9375 L 9 35.9375 Z M 9 1.4375 " clip-rule="nonzero"/></clipPath><clipPath id="628cddd3ca"><path d="M 28 16 L 30.507812 16 L 30.507812 18 L 28 18 Z M 28 16 " clip-rule="nonzero"/></clipPath><clipPath id="9fd8ab23ee"><path d="M 28 23 L 30.507812 23 L 30.507812 25 L 28 25 Z M 28 23 " clip-rule="nonzero"/></clipPath><clipPath id="e64497eaea"><path d="M 7.257812 16 L 10 16 L 10 18 L 7.257812 18 Z M 7.257812 16 " clip-rule="nonzero"/></clipPath><clipPath id="24358538b1"><path d="M 7.257812 23 L 10 23 L 10 25 L 7.257812 25 Z M 7.257812 23 " clip-rule="nonzero"/></clipPath></defs><path fill="#000000" d="M 13.074219 13.097656 L 24.695312 13.097656 C 24.96875 13.097656 25.191406 12.878906 25.191406 12.605469 L 25.191406 10.007812 C 25.191406 9.738281 24.96875 9.519531 24.695312 9.519531 L 13.074219 9.519531 C 12.796875 9.519531 12.578125 9.738281 12.578125 10.007812 L 12.578125 12.605469 C 12.578125 12.878906 12.796875 13.097656 13.074219 13.097656 Z M 13.074219 13.097656 " fill-opacity="1" fill-rule="nonzero"/><g clip-path="url(#55ef199c61)"><path fill="#000000" d="M 27.417969 6.882812 L 26.816406 6.882812 L 26.816406 4.664062 C 26.816406 4.296875 26.597656 3.957031 26.261719 3.804688 L 24.84375 3.160156 C 21.054688 1.4375 16.710938 1.4375 12.925781 3.160156 L 11.507812 3.804688 C 11.167969 3.957031 10.949219 4.296875 10.949219 4.664062 L 10.949219 6.882812 L 10.347656 6.882812 C 10.054688 6.882812 9.816406 7.117188 9.816406 7.40625 L 9.816406 8.105469 C 9.816406 8.398438 10.054688 8.632812 10.347656 8.632812 L 10.949219 8.632812 L 10.949219 33.136719 L 10.875 33.136719 C 10.347656 33.136719 9.917969 33.558594 9.917969 34.082031 L 9.917969 35.691406 C 9.917969 35.828125 10.027344 35.9375 10.164062 35.9375 L 27.601562 35.9375 C 27.738281 35.9375 27.851562 35.828125 27.851562 35.691406 L 27.851562 34.082031 C 27.851562 33.558594 27.421875 33.136719 26.890625 33.136719 L 26.816406 33.136719 L 26.816406 9.519531 C 26.816406 9.382812 26.703125 9.273438 26.566406 9.273438 C 26.429688 9.273438 26.320312 9.382812 26.320312 9.519531 L 26.320312 33.136719 L 11.449219 33.136719 L 11.449219 8.632812 L 27.417969 8.632812 C 27.710938 8.632812 27.953125 8.398438 27.953125 8.105469 L 27.953125 7.40625 C 27.953125 7.117188 27.710938 6.882812 27.417969 6.882812 Z M 11.449219 4.664062 C 11.449219 4.484375 11.554688 4.324219 11.714844 4.25 L 13.132812 3.605469 C 16.789062 1.941406 20.980469 1.941406 24.632812 3.605469 L 26.050781 4.25 C 26.214844 4.324219 26.320312 4.484375 26.320312 4.664062 L 26.320312 6.882812 L 11.449219 6.882812 Z M 26.890625 33.625 C 27.148438 33.625 27.355469 33.828125 27.355469 34.082031 L 27.355469 35.449219 L 10.414062 35.449219 L 10.414062 34.082031 C 10.414062 33.828125 10.621094 33.625 10.875 33.625 Z M 27.453125 8.105469 C 27.453125 8.125 27.4375 8.140625 27.417969 8.140625 L 10.347656 8.140625 C 10.328125 8.140625 10.3125 8.125 10.3125 8.105469 L 10.3125 7.40625 C 10.3125 7.386719 10.328125 7.371094 10.347656 7.371094 L 27.417969 7.371094 C 27.4375 7.371094 27.453125 7.386719 27.453125 7.40625 Z M 27.453125 8.105469 " fill-opacity="1" fill-rule="nonzero"/></g><path fill="#000000" d="M 13.847656 31.765625 C 13.710938 31.765625 13.597656 31.875 13.597656 32.011719 C 13.597656 32.148438 13.710938 32.257812 13.847656 32.257812 L 25.191406 32.257812 C 25.328125 32.257812 25.441406 32.148438 25.441406 32.011719 L 25.441406 15.296875 C 25.441406 14.773438 25.007812 14.351562 24.480469 14.351562 L 13.285156 14.351562 C 12.757812 14.351562 12.328125 14.773438 12.328125 15.296875 L 12.328125 32.011719 C 12.328125 32.148438 12.4375 32.257812 12.578125 32.257812 C 12.714844 32.257812 12.824219 32.148438 12.824219 32.011719 L 12.824219 28.097656 L 15.929688 28.097656 L 15.929688 31.765625 Z M 21.835938 14.839844 L 24.480469 14.839844 C 24.734375 14.839844 24.941406 15.046875 24.941406 15.296875 L 24.941406 18.507812 L 21.835938 18.507812 Z M 21.835938 18.996094 L 24.941406 18.996094 L 24.941406 23.058594 L 21.835938 23.058594 Z M 21.835938 23.546875 L 24.941406 23.546875 L 24.941406 27.609375 L 21.835938 27.609375 Z M 21.835938 28.097656 L 24.941406 28.097656 L 24.941406 31.765625 L 21.835938 31.765625 Z M 16.429688 14.839844 L 21.339844 14.839844 L 21.339844 18.507812 L 16.429688 18.507812 Z M 16.429688 18.996094 L 21.339844 18.996094 L 21.339844 23.058594 L 16.429688 23.058594 Z M 16.429688 23.546875 L 21.339844 23.546875 L 21.339844 27.609375 L 16.429688 27.609375 Z M 16.429688 28.097656 L 21.339844 28.097656 L 21.339844 31.765625 L 16.429688 31.765625 Z M 12.824219 15.296875 C 12.824219 15.046875 13.03125 14.839844 13.285156 14.839844 L 15.929688 14.839844 L 15.929688 18.507812 L 12.824219 18.507812 Z M 12.824219 18.996094 L 15.929688 18.996094 L 15.929688 23.058594 L 12.824219 23.058594 Z M 12.824219 27.609375 L 12.824219 23.546875 L 15.929688 23.546875 L 15.929688 27.609375 Z M 12.824219 27.609375 " fill-opacity="1" fill-rule="nonzero"/><path fill="#000000" d="M 24.871094 4.839844 L 22.582031 3.992188 C 20.199219 3.109375 17.570312 3.109375 15.1875 3.992188 L 12.898438 4.839844 C 12.703125 4.910156 12.578125 5.09375 12.578125 5.296875 L 12.578125 5.992188 L 25.191406 5.992188 L 25.191406 5.296875 C 25.191406 5.09375 25.0625 4.910156 24.871094 4.839844 Z M 24.871094 4.839844 " fill-opacity="1" fill-rule="nonzero"/><g clip-path="url(#628cddd3ca)"><path fill="#000000" d="M 28.492188 17.96875 C 28.53125 17.96875 28.570312 17.960938 28.605469 17.941406 L 30.242188 17.09375 C 30.363281 17.03125 30.410156 16.882812 30.347656 16.761719 C 30.28125 16.644531 30.132812 16.597656 30.011719 16.660156 L 28.375 17.507812 C 28.253906 17.570312 28.207031 17.71875 28.269531 17.839844 C 28.316406 17.921875 28.402344 17.96875 28.492188 17.96875 Z M 28.492188 17.96875 " fill-opacity="1" fill-rule="nonzero"/></g><g clip-path="url(#9fd8ab23ee)"><path fill="#000000" d="M 30.308594 23.808594 L 28.628906 23.046875 C 28.503906 22.992188 28.355469 23.042969 28.296875 23.167969 C 28.242188 23.289062 28.296875 23.4375 28.421875 23.492188 L 30.101562 24.253906 C 30.132812 24.269531 30.167969 24.277344 30.203125 24.277344 C 30.296875 24.277344 30.386719 24.222656 30.429688 24.132812 C 30.488281 24.011719 30.433594 23.867188 30.308594 23.808594 Z M 30.308594 23.808594 " fill-opacity="1" fill-rule="nonzero"/></g><g clip-path="url(#e64497eaea)"><path fill="#000000" d="M 9.394531 17.507812 L 7.757812 16.660156 C 7.636719 16.597656 7.484375 16.644531 7.421875 16.761719 C 7.355469 16.882812 7.402344 17.03125 7.523438 17.09375 L 9.160156 17.941406 C 9.199219 17.960938 9.238281 17.96875 9.277344 17.96875 C 9.367188 17.96875 9.453125 17.921875 9.496094 17.839844 C 9.5625 17.71875 9.515625 17.570312 9.394531 17.507812 Z M 9.394531 17.507812 " fill-opacity="1" fill-rule="nonzero"/></g><g clip-path="url(#24358538b1)"><path fill="#000000" d="M 9.140625 23.046875 L 7.460938 23.808594 C 7.335938 23.867188 7.28125 24.011719 7.335938 24.132812 C 7.378906 24.222656 7.46875 24.277344 7.5625 24.277344 C 7.597656 24.277344 7.632812 24.269531 7.667969 24.253906 L 9.347656 23.492188 C 9.472656 23.4375 9.523438 23.289062 9.46875 23.167969 C 9.410156 23.046875 9.265625 22.992188 9.140625 23.046875 Z M 9.140625 23.046875 " fill-opacity="1" fill-rule="nonzero"/></g></svg>