<?xml version="1.0" encoding="utf-8"?>
<!-- Generator: Adobe Illustrator 22.1.0, SVG Export Plug-In . SVG Version: 6.00 Build 0)  -->
<svg version="1.1" id="Layer_1" xmlns="http://www.w3.org/2000/svg" xmlns:xlink="http://www.w3.org/1999/xlink" x="0px" y="0px"
	 viewBox="0 0 288 288" style="enable-background:new 0 0 288 288;" xml:space="preserve">
<style type="text/css">
	.st0{fill:#FFFFFF;}
	.st1{fill:#16C3F7;}
</style>
<circle cx="145" cy="145.2" r="142.2"/>
<g>
	<polygon class="st0" points="83.3,184.6 71.9,194.3 220,194.3 209,184.6 205.5,184.6 214.8,192.6 77,192.6 86.6,184.6 	"/>
	<path class="st0" d="M70.7,211.1h150.4c4.9,0,8.8-3.9,8.8-8.8c0-3.6-2.1-6.6-5.1-8L212,182.9c5.2-0.6,9.3-4.9,9.3-10.3V93.2
		c0-5.8-4.7-10.5-10.4-10.5H81c-5.8,0-10.4,4.7-10.4,10.5v79.4c0,5.5,4.3,10,9.7,10.4L67,194.3c-1.5,0.7-2.8,1.8-3.7,3.2l-0.1,0.1
		h0.1c-0.9,1.4-1.4,3-1.4,4.7C61.9,207.1,65.8,211.1,70.7,211.1z M74.1,205.2c-1,0-1.7-0.8-1.7-1.7c0-1,0.8-1.7,1.7-1.7
		c1,0,1.7,0.8,1.7,1.7C75.9,204.4,75.1,205.2,74.1,205.2z M81,205.2c-1,0-1.7-0.8-1.7-1.7c0-1,0.8-1.7,1.7-1.7c1,0,1.7,0.8,1.7,1.7
		C82.8,204.4,82,205.2,81,205.2z M88.4,205.2c-1,0-1.7-0.8-1.7-1.7c0-1,0.8-1.7,1.7-1.7c1,0,1.7,0.8,1.7,1.7
		C90.2,204.4,89.4,205.2,88.4,205.2z M152.2,205.2h-14.7c-1,0-1.7-0.8-1.7-1.7c0-1,0.8-1.7,1.7-1.7h14.7c1,0,1.8,0.8,1.8,1.7
		C153.9,204.4,153.1,205.2,152.2,205.2z M145.9,88.9c1.1,0,1.9,0.9,1.9,1.9c0,1.1-0.8,1.9-1.9,1.9c-1.1,0-1.9-0.9-1.9-1.9
		C144,89.7,144.8,88.9,145.9,88.9z M80,167.4V98.2h131.8v69.2H80z M83.3,184.6h3.4l-9.7,8.1h137.8l-9.3-8.1h3.5l11,9.8H71.9
		L83.3,184.6z"/>
</g>
<circle class="st1" cx="44.5" cy="44.5" r="36.5"/>
<g>
	<path class="st0" d="M33.7,56.8v-3.9l3.5-3.1c6-5.4,8.9-8.4,8.9-11.6c0-2.2-1.3-4-4.4-4c-2.3,0-4.4,1.2-5.8,2.2L34,31.9
		c2-1.6,5.2-2.8,8.9-2.8c6.2,0,9.6,3.6,9.6,8.5c0,4.6-3.3,8.3-7.3,11.8l-2.5,2.1v0.1H53v5.2H33.7z"/>
</g>
</svg>
