<?xml version="1.0" encoding="utf-8"?>
<!-- Generator: Adobe Illustrator 22.1.0, SVG Export Plug-In . SVG Version: 6.00 Build 0)  -->
<svg version="1.1" id="Layer_1" xmlns="http://www.w3.org/2000/svg" xmlns:xlink="http://www.w3.org/1999/xlink" x="0px" y="0px"
	 viewBox="0 0 288 288" style="enable-background:new 0 0 288 288;" xml:space="preserve">
<style type="text/css">
	.st0{fill:#FFFFFF;}
	.st1{fill:#16C3F7;}
</style>
<circle cx="145" cy="145.2" r="142.2"/>
<g>
	<path class="st0" d="M100.8,80.3c-4.2,0-7.8,3.4-7.8,7.8v114.5c0,4.2,3.4,7.8,7.8,7.8h69.1v-15.2c0-6.7,5.4-12.2,12.2-12.2H199V88
		c0-4.2-3.4-7.8-7.8-7.8h-90.4V80.3z M178.8,151.1h-65.5v-5.4h65.5V151.1z M178.8,132.5h-65.5v-5.4h65.5V132.5z M178.8,113.9h-65.5
		v-5.4h65.5V113.9z"/>
	<path class="st0" d="M174.3,195v12.3l21.3-20.1h-13.5C177.8,187.2,174.3,190.7,174.3,195z"/>
</g>
<circle class="st1" cx="45.5" cy="45.5" r="36.5"/>
<g>
	<path class="st0" d="M41.4,36.5L41.4,36.5l-5.3,2.5l-1-4.8l7.3-3.4h5.2v27.3h-6.2V36.5z"/>
</g>
</svg>
